<?xml version="1.0" encoding="utf-8" standalone="no"?>
<!DOCTYPE svg PUBLIC "-//W3C//DTD SVG 1.1//EN"
  "http://www.w3.org/Graphics/SVG/1.1/DTD/svg11.dtd">
<!-- Created with matplotlib (http://matplotlib.org/) -->
<svg height="482pt" version="1.1" viewBox="0 0 721 482" width="721pt" xmlns="http://www.w3.org/2000/svg" xmlns:xlink="http://www.w3.org/1999/xlink">
 <defs>
  <style type="text/css">
*{stroke-linecap:butt;stroke-linejoin:round;stroke-miterlimit:100000;}
  </style>
 </defs>
 <g id="figure_1">
  <g id="patch_1">
   <path d="M 0 482.983466 
L 721.765625 482.983466 
L 721.765625 -0 
L 0 -0 
z
" style="fill:#ffffff;"/>
  </g>
  <g id="axes_1">
   <g id="patch_2">
    <path d="M 44.965625 234.37267 
L 241.906801 234.37267 
L 241.906801 56.827216 
L 44.965625 56.827216 
z
" style="fill:#ffffff;"/>
   </g>
   <g id="patch_3">
    <path clip-path="url(#p315c087632)" d="M 64.659743 234.37267 
L 90.918566 234.37267 
L 90.918566 231.598523 
L 64.659743 231.598523 
z
" style="fill:#1f77b4;stroke:#000000;stroke-linejoin:miter;"/>
   </g>
   <g id="patch_4">
    <path clip-path="url(#p315c087632)" d="M 97.483272 234.37267 
L 123.742096 234.37267 
L 123.742096 214.433483 
L 97.483272 214.433483 
z
" style="fill:#1f77b4;stroke:#000000;stroke-linejoin:miter;"/>
   </g>
   <g id="patch_5">
    <path clip-path="url(#p315c087632)" d="M 130.306801 234.37267 
L 156.565625 234.37267 
L 156.565625 147.680554 
L 130.306801 147.680554 
z
" style="fill:#1f77b4;stroke:#000000;stroke-linejoin:miter;"/>
   </g>
   <g id="patch_6">
    <path clip-path="url(#p315c087632)" d="M 163.130331 234.37267 
L 189.389154 234.37267 
L 189.389154 234.37267 
L 163.130331 234.37267 
z
" style="fill:#1f77b4;stroke:#000000;stroke-linejoin:miter;"/>
   </g>
   <g id="patch_7">
    <path clip-path="url(#p315c087632)" d="M 195.95386 234.37267 
L 222.212684 234.37267 
L 222.212684 166.232666 
L 195.95386 166.232666 
z
" style="fill:#1f77b4;stroke:#000000;stroke-linejoin:miter;"/>
   </g>
   <g id="patch_8">
    <path d="M 44.965625 234.37267 
L 241.906801 234.37267 
" style="fill:none;stroke:#000000;stroke-linecap:square;stroke-linejoin:miter;"/>
   </g>
   <g id="patch_9">
    <path d="M 44.965625 234.37267 
L 44.965625 56.827216 
" style="fill:none;stroke:#000000;stroke-linecap:square;stroke-linejoin:miter;"/>
   </g>
   <g id="matplotlib.axis_1">
    <g id="xtick_1">
     <g id="text_1">
      <!-- A -->
      <defs>
       <path d="M 34.1875 63.1875 
L 20.796875 26.90625 
L 47.609375 26.90625 
z
M 28.609375 72.90625 
L 39.796875 72.90625 
L 67.578125 0 
L 57.328125 0 
L 50.6875 18.703125 
L 17.828125 18.703125 
L 11.1875 0 
L 0.78125 0 
z
" id="BitstreamVeraSans-Roman-41"/>
      </defs>
      <g transform="translate(74.3688419118 245.971107955)scale(0.1 -0.1)">
       <use xlink:href="#BitstreamVeraSans-Roman-41"/>
      </g>
     </g>
    </g>
    <g id="xtick_2">
     <g id="text_2">
      <!-- B -->
      <defs>
       <path d="M 19.671875 34.8125 
L 19.671875 8.109375 
L 35.5 8.109375 
Q 43.453125 8.109375 47.28125 11.40625 
Q 51.125 14.703125 51.125 21.484375 
Q 51.125 28.328125 47.28125 31.5625 
Q 43.453125 34.8125 35.5 34.8125 
z
M 19.671875 64.796875 
L 19.671875 42.828125 
L 34.28125 42.828125 
Q 41.5 42.828125 45.03125 45.53125 
Q 48.578125 48.25 48.578125 53.8125 
Q 48.578125 59.328125 45.03125 62.0625 
Q 41.5 64.796875 34.28125 64.796875 
z
M 9.8125 72.90625 
L 35.015625 72.90625 
Q 46.296875 72.90625 52.390625 68.21875 
Q 58.5 63.53125 58.5 54.890625 
Q 58.5 48.1875 55.375 44.234375 
Q 52.25 40.28125 46.1875 39.3125 
Q 53.46875 37.75 57.5 32.78125 
Q 61.53125 27.828125 61.53125 20.40625 
Q 61.53125 10.640625 54.890625 5.3125 
Q 48.25 0 35.984375 0 
L 9.8125 0 
z
" id="BitstreamVeraSans-Roman-42"/>
      </defs>
      <g transform="translate(107.182215074 245.971107955)scale(0.1 -0.1)">
       <use xlink:href="#BitstreamVeraSans-Roman-42"/>
      </g>
     </g>
    </g>
    <g id="xtick_3">
     <g id="text_3">
      <!-- C -->
      <defs>
       <path d="M 64.40625 67.28125 
L 64.40625 56.890625 
Q 59.421875 61.53125 53.78125 63.8125 
Q 48.140625 66.109375 41.796875 66.109375 
Q 29.296875 66.109375 22.65625 58.46875 
Q 16.015625 50.828125 16.015625 36.375 
Q 16.015625 21.96875 22.65625 14.328125 
Q 29.296875 6.6875 41.796875 6.6875 
Q 48.140625 6.6875 53.78125 8.984375 
Q 59.421875 11.28125 64.40625 15.921875 
L 64.40625 5.609375 
Q 59.234375 2.09375 53.4375 0.328125 
Q 47.65625 -1.421875 41.21875 -1.421875 
Q 24.65625 -1.421875 15.125 8.703125 
Q 5.609375 18.84375 5.609375 36.375 
Q 5.609375 53.953125 15.125 64.078125 
Q 24.65625 74.21875 41.21875 74.21875 
Q 47.75 74.21875 53.53125 72.484375 
Q 59.328125 70.75 64.40625 67.28125 
" id="BitstreamVeraSans-Roman-43"/>
      </defs>
      <g transform="translate(139.944806985 245.971107955)scale(0.1 -0.1)">
       <use xlink:href="#BitstreamVeraSans-Roman-43"/>
      </g>
     </g>
    </g>
    <g id="xtick_4">
     <g id="text_4">
      <!-- D -->
      <defs>
       <path d="M 19.671875 64.796875 
L 19.671875 8.109375 
L 31.59375 8.109375 
Q 46.6875 8.109375 53.6875 14.9375 
Q 60.6875 21.78125 60.6875 36.53125 
Q 60.6875 51.171875 53.6875 57.984375 
Q 46.6875 64.796875 31.59375 64.796875 
z
M 9.8125 72.90625 
L 30.078125 72.90625 
Q 51.265625 72.90625 61.171875 64.09375 
Q 71.09375 55.28125 71.09375 36.53125 
Q 71.09375 17.671875 61.125 8.828125 
Q 51.171875 0 30.078125 0 
L 9.8125 0 
z
" id="BitstreamVeraSans-Roman-44"/>
      </defs>
      <g transform="translate(172.409742647 245.971107955)scale(0.1 -0.1)">
       <use xlink:href="#BitstreamVeraSans-Roman-44"/>
      </g>
     </g>
    </g>
    <g id="xtick_5">
     <g id="text_5">
      <!-- E -->
      <defs>
       <path d="M 9.8125 72.90625 
L 55.90625 72.90625 
L 55.90625 64.59375 
L 19.671875 64.59375 
L 19.671875 43.015625 
L 54.390625 43.015625 
L 54.390625 34.71875 
L 19.671875 34.71875 
L 19.671875 8.296875 
L 56.78125 8.296875 
L 56.78125 0 
L 9.8125 0 
z
" id="BitstreamVeraSans-Roman-45"/>
      </defs>
      <g transform="translate(205.923897059 245.971107955)scale(0.1 -0.1)">
       <use xlink:href="#BitstreamVeraSans-Roman-45"/>
      </g>
     </g>
    </g>
   </g>
   <g id="matplotlib.axis_2">
    <g id="ytick_1">
     <g id="line2d_1">
      <defs>
       <path d="M 0 0 
L 4 0 
" id="m3506ddeb3c" style="stroke:#000000;stroke-width:0.5;"/>
      </defs>
      <g>
       <use style="stroke:#000000;stroke-width:0.5;" x="44.965625" xlink:href="#m3506ddeb3c" y="234.372670455"/>
      </g>
     </g>
     <g id="text_6">
      <!-- 0 -->
      <defs>
       <path d="M 31.78125 66.40625 
Q 24.171875 66.40625 20.328125 58.90625 
Q 16.5 51.421875 16.5 36.375 
Q 16.5 21.390625 20.328125 13.890625 
Q 24.171875 6.390625 31.78125 6.390625 
Q 39.453125 6.390625 43.28125 13.890625 
Q 47.125 21.390625 47.125 36.375 
Q 47.125 51.421875 43.28125 58.90625 
Q 39.453125 66.40625 31.78125 66.40625 
M 31.78125 74.21875 
Q 44.046875 74.21875 50.515625 64.515625 
Q 56.984375 54.828125 56.984375 36.375 
Q 56.984375 17.96875 50.515625 8.265625 
Q 44.046875 -1.421875 31.78125 -1.421875 
Q 19.53125 -1.421875 13.0625 8.265625 
Q 6.59375 17.96875 6.59375 36.375 
Q 6.59375 54.828125 13.0625 64.515625 
Q 19.53125 74.21875 31.78125 74.21875 
" id="BitstreamVeraSans-Roman-30"/>
      </defs>
      <g transform="translate(34.603125 237.132045455)scale(0.1 -0.1)">
       <use xlink:href="#BitstreamVeraSans-Roman-30"/>
      </g>
     </g>
    </g>
    <g id="ytick_2">
     <g id="line2d_2">
      <g>
       <use style="stroke:#000000;stroke-width:0.5;" x="44.965625" xlink:href="#m3506ddeb3c" y="198.863579545"/>
      </g>
     </g>
     <g id="text_7">
      <!-- 20 -->
      <defs>
       <path d="M 19.1875 8.296875 
L 53.609375 8.296875 
L 53.609375 0 
L 7.328125 0 
L 7.328125 8.296875 
Q 12.9375 14.109375 22.625 23.890625 
Q 32.328125 33.6875 34.8125 36.53125 
Q 39.546875 41.84375 41.421875 45.53125 
Q 43.3125 49.21875 43.3125 52.78125 
Q 43.3125 58.59375 39.234375 62.25 
Q 35.15625 65.921875 28.609375 65.921875 
Q 23.96875 65.921875 18.8125 64.3125 
Q 13.671875 62.703125 7.8125 59.421875 
L 7.8125 69.390625 
Q 13.765625 71.78125 18.9375 73 
Q 24.125 74.21875 28.421875 74.21875 
Q 39.75 74.21875 46.484375 68.546875 
Q 53.21875 62.890625 53.21875 53.421875 
Q 53.21875 48.921875 51.53125 44.890625 
Q 49.859375 40.875 45.40625 35.40625 
Q 44.1875 33.984375 37.640625 27.21875 
Q 31.109375 20.453125 19.1875 8.296875 
" id="BitstreamVeraSans-Roman-32"/>
      </defs>
      <g transform="translate(28.240625 201.622954545)scale(0.1 -0.1)">
       <use xlink:href="#BitstreamVeraSans-Roman-32"/>
       <use x="63.623046875" xlink:href="#BitstreamVeraSans-Roman-30"/>
      </g>
     </g>
    </g>
    <g id="ytick_3">
     <g id="line2d_3">
      <g>
       <use style="stroke:#000000;stroke-width:0.5;" x="44.965625" xlink:href="#m3506ddeb3c" y="163.354488636"/>
      </g>
     </g>
     <g id="text_8">
      <!-- 40 -->
      <defs>
       <path d="M 37.796875 64.3125 
L 12.890625 25.390625 
L 37.796875 25.390625 
z
M 35.203125 72.90625 
L 47.609375 72.90625 
L 47.609375 25.390625 
L 58.015625 25.390625 
L 58.015625 17.1875 
L 47.609375 17.1875 
L 47.609375 0 
L 37.796875 0 
L 37.796875 17.1875 
L 4.890625 17.1875 
L 4.890625 26.703125 
z
" id="BitstreamVeraSans-Roman-34"/>
      </defs>
      <g transform="translate(28.240625 166.113863636)scale(0.1 -0.1)">
       <use xlink:href="#BitstreamVeraSans-Roman-34"/>
       <use x="63.623046875" xlink:href="#BitstreamVeraSans-Roman-30"/>
      </g>
     </g>
    </g>
    <g id="ytick_4">
     <g id="line2d_4">
      <g>
       <use style="stroke:#000000;stroke-width:0.5;" x="44.965625" xlink:href="#m3506ddeb3c" y="127.845397727"/>
      </g>
     </g>
     <g id="text_9">
      <!-- 60 -->
      <defs>
       <path d="M 33.015625 40.375 
Q 26.375 40.375 22.484375 35.828125 
Q 18.609375 31.296875 18.609375 23.390625 
Q 18.609375 15.53125 22.484375 10.953125 
Q 26.375 6.390625 33.015625 6.390625 
Q 39.65625 6.390625 43.53125 10.953125 
Q 47.40625 15.53125 47.40625 23.390625 
Q 47.40625 31.296875 43.53125 35.828125 
Q 39.65625 40.375 33.015625 40.375 
M 52.59375 71.296875 
L 52.59375 62.3125 
Q 48.875 64.0625 45.09375 64.984375 
Q 41.3125 65.921875 37.59375 65.921875 
Q 27.828125 65.921875 22.671875 59.328125 
Q 17.53125 52.734375 16.796875 39.40625 
Q 19.671875 43.65625 24.015625 45.921875 
Q 28.375 48.1875 33.59375 48.1875 
Q 44.578125 48.1875 50.953125 41.515625 
Q 57.328125 34.859375 57.328125 23.390625 
Q 57.328125 12.15625 50.6875 5.359375 
Q 44.046875 -1.421875 33.015625 -1.421875 
Q 20.359375 -1.421875 13.671875 8.265625 
Q 6.984375 17.96875 6.984375 36.375 
Q 6.984375 53.65625 15.1875 63.9375 
Q 23.390625 74.21875 37.203125 74.21875 
Q 40.921875 74.21875 44.703125 73.484375 
Q 48.484375 72.75 52.59375 71.296875 
" id="BitstreamVeraSans-Roman-36"/>
      </defs>
      <g transform="translate(28.240625 130.604772727)scale(0.1 -0.1)">
       <use xlink:href="#BitstreamVeraSans-Roman-36"/>
       <use x="63.623046875" xlink:href="#BitstreamVeraSans-Roman-30"/>
      </g>
     </g>
    </g>
    <g id="ytick_5">
     <g id="line2d_5">
      <g>
       <use style="stroke:#000000;stroke-width:0.5;" x="44.965625" xlink:href="#m3506ddeb3c" y="92.3363068182"/>
      </g>
     </g>
     <g id="text_10">
      <!-- 80 -->
      <defs>
       <path d="M 31.78125 34.625 
Q 24.75 34.625 20.71875 30.859375 
Q 16.703125 27.09375 16.703125 20.515625 
Q 16.703125 13.921875 20.71875 10.15625 
Q 24.75 6.390625 31.78125 6.390625 
Q 38.8125 6.390625 42.859375 10.171875 
Q 46.921875 13.96875 46.921875 20.515625 
Q 46.921875 27.09375 42.890625 30.859375 
Q 38.875 34.625 31.78125 34.625 
M 21.921875 38.8125 
Q 15.578125 40.375 12.03125 44.71875 
Q 8.5 49.078125 8.5 55.328125 
Q 8.5 64.0625 14.71875 69.140625 
Q 20.953125 74.21875 31.78125 74.21875 
Q 42.671875 74.21875 48.875 69.140625 
Q 55.078125 64.0625 55.078125 55.328125 
Q 55.078125 49.078125 51.53125 44.71875 
Q 48 40.375 41.703125 38.8125 
Q 48.828125 37.15625 52.796875 32.3125 
Q 56.78125 27.484375 56.78125 20.515625 
Q 56.78125 9.90625 50.3125 4.234375 
Q 43.84375 -1.421875 31.78125 -1.421875 
Q 19.734375 -1.421875 13.25 4.234375 
Q 6.78125 9.90625 6.78125 20.515625 
Q 6.78125 27.484375 10.78125 32.3125 
Q 14.796875 37.15625 21.921875 38.8125 
M 18.3125 54.390625 
Q 18.3125 48.734375 21.84375 45.5625 
Q 25.390625 42.390625 31.78125 42.390625 
Q 38.140625 42.390625 41.71875 45.5625 
Q 45.3125 48.734375 45.3125 54.390625 
Q 45.3125 60.0625 41.71875 63.234375 
Q 38.140625 66.40625 31.78125 66.40625 
Q 25.390625 66.40625 21.84375 63.234375 
Q 18.3125 60.0625 18.3125 54.390625 
" id="BitstreamVeraSans-Roman-38"/>
      </defs>
      <g transform="translate(28.240625 95.0956818182)scale(0.1 -0.1)">
       <use xlink:href="#BitstreamVeraSans-Roman-38"/>
       <use x="63.623046875" xlink:href="#BitstreamVeraSans-Roman-30"/>
      </g>
     </g>
    </g>
    <g id="ytick_6">
     <g id="line2d_6">
      <g>
       <use style="stroke:#000000;stroke-width:0.5;" x="44.965625" xlink:href="#m3506ddeb3c" y="56.8272159091"/>
      </g>
     </g>
     <g id="text_11">
      <!-- 100 -->
      <defs>
       <path d="M 12.40625 8.296875 
L 28.515625 8.296875 
L 28.515625 63.921875 
L 10.984375 60.40625 
L 10.984375 69.390625 
L 28.421875 72.90625 
L 38.28125 72.90625 
L 38.28125 8.296875 
L 54.390625 8.296875 
L 54.390625 0 
L 12.40625 0 
z
" id="BitstreamVeraSans-Roman-31"/>
      </defs>
      <g transform="translate(21.878125 59.5865909091)scale(0.1 -0.1)">
       <use xlink:href="#BitstreamVeraSans-Roman-31"/>
       <use x="63.623046875" xlink:href="#BitstreamVeraSans-Roman-30"/>
       <use x="127.24609375" xlink:href="#BitstreamVeraSans-Roman-30"/>
      </g>
     </g>
    </g>
    <g id="text_12">
     <!-- Basin size (%) -->
     <defs>
      <path id="BitstreamVeraSans-Roman-20"/>
      <path d="M 5.515625 54.6875 
L 48.1875 54.6875 
L 48.1875 46.484375 
L 14.40625 7.171875 
L 48.1875 7.171875 
L 48.1875 0 
L 4.296875 0 
L 4.296875 8.203125 
L 38.09375 47.515625 
L 5.515625 47.515625 
z
" id="BitstreamVeraSans-Roman-7a"/>
      <path d="M 8.015625 75.875 
L 15.828125 75.875 
Q 23.140625 64.359375 26.78125 53.3125 
Q 30.421875 42.28125 30.421875 31.390625 
Q 30.421875 20.453125 26.78125 9.375 
Q 23.140625 -1.703125 15.828125 -13.1875 
L 8.015625 -13.1875 
Q 14.5 -2 17.703125 9.0625 
Q 20.90625 20.125 20.90625 31.390625 
Q 20.90625 42.671875 17.703125 53.65625 
Q 14.5 64.65625 8.015625 75.875 
" id="BitstreamVeraSans-Roman-29"/>
      <path d="M 44.28125 53.078125 
L 44.28125 44.578125 
Q 40.484375 46.53125 36.375 47.5 
Q 32.28125 48.484375 27.875 48.484375 
Q 21.1875 48.484375 17.84375 46.4375 
Q 14.5 44.390625 14.5 40.28125 
Q 14.5 37.15625 16.890625 35.375 
Q 19.28125 33.59375 26.515625 31.984375 
L 29.59375 31.296875 
Q 39.15625 29.25 43.1875 25.515625 
Q 47.21875 21.78125 47.21875 15.09375 
Q 47.21875 7.46875 41.1875 3.015625 
Q 35.15625 -1.421875 24.609375 -1.421875 
Q 20.21875 -1.421875 15.453125 -0.5625 
Q 10.6875 0.296875 5.421875 2 
L 5.421875 11.28125 
Q 10.40625 8.6875 15.234375 7.390625 
Q 20.0625 6.109375 24.8125 6.109375 
Q 31.15625 6.109375 34.5625 8.28125 
Q 37.984375 10.453125 37.984375 14.40625 
Q 37.984375 18.0625 35.515625 20.015625 
Q 33.0625 21.96875 24.703125 23.78125 
L 21.578125 24.515625 
Q 13.234375 26.265625 9.515625 29.90625 
Q 5.8125 33.546875 5.8125 39.890625 
Q 5.8125 47.609375 11.28125 51.796875 
Q 16.75 56 26.8125 56 
Q 31.78125 56 36.171875 55.265625 
Q 40.578125 54.546875 44.28125 53.078125 
" id="BitstreamVeraSans-Roman-73"/>
      <path d="M 56.203125 29.59375 
L 56.203125 25.203125 
L 14.890625 25.203125 
Q 15.484375 15.921875 20.484375 11.0625 
Q 25.484375 6.203125 34.421875 6.203125 
Q 39.59375 6.203125 44.453125 7.46875 
Q 49.3125 8.734375 54.109375 11.28125 
L 54.109375 2.78125 
Q 49.265625 0.734375 44.1875 -0.34375 
Q 39.109375 -1.421875 33.890625 -1.421875 
Q 20.796875 -1.421875 13.15625 6.1875 
Q 5.515625 13.8125 5.515625 26.8125 
Q 5.515625 40.234375 12.765625 48.109375 
Q 20.015625 56 32.328125 56 
Q 43.359375 56 49.78125 48.890625 
Q 56.203125 41.796875 56.203125 29.59375 
M 47.21875 32.234375 
Q 47.125 39.59375 43.09375 43.984375 
Q 39.0625 48.390625 32.421875 48.390625 
Q 24.90625 48.390625 20.390625 44.140625 
Q 15.875 39.890625 15.1875 32.171875 
z
" id="BitstreamVeraSans-Roman-65"/>
      <path d="M 34.28125 27.484375 
Q 23.390625 27.484375 19.1875 25 
Q 14.984375 22.515625 14.984375 16.5 
Q 14.984375 11.71875 18.140625 8.90625 
Q 21.296875 6.109375 26.703125 6.109375 
Q 34.1875 6.109375 38.703125 11.40625 
Q 43.21875 16.703125 43.21875 25.484375 
L 43.21875 27.484375 
z
M 52.203125 31.203125 
L 52.203125 0 
L 43.21875 0 
L 43.21875 8.296875 
Q 40.140625 3.328125 35.546875 0.953125 
Q 30.953125 -1.421875 24.3125 -1.421875 
Q 15.921875 -1.421875 10.953125 3.296875 
Q 6 8.015625 6 15.921875 
Q 6 25.140625 12.171875 29.828125 
Q 18.359375 34.515625 30.609375 34.515625 
L 43.21875 34.515625 
L 43.21875 35.40625 
Q 43.21875 41.609375 39.140625 45 
Q 35.0625 48.390625 27.6875 48.390625 
Q 23 48.390625 18.546875 47.265625 
Q 14.109375 46.140625 10.015625 43.890625 
L 10.015625 52.203125 
Q 14.9375 54.109375 19.578125 55.046875 
Q 24.21875 56 28.609375 56 
Q 40.484375 56 46.34375 49.84375 
Q 52.203125 43.703125 52.203125 31.203125 
" id="BitstreamVeraSans-Roman-61"/>
      <path d="M 72.703125 32.078125 
Q 68.453125 32.078125 66.03125 28.46875 
Q 63.625 24.859375 63.625 18.40625 
Q 63.625 12.0625 66.03125 8.421875 
Q 68.453125 4.78125 72.703125 4.78125 
Q 76.859375 4.78125 79.265625 8.421875 
Q 81.6875 12.0625 81.6875 18.40625 
Q 81.6875 24.8125 79.265625 28.4375 
Q 76.859375 32.078125 72.703125 32.078125 
M 72.703125 38.28125 
Q 80.421875 38.28125 84.953125 32.90625 
Q 89.5 27.546875 89.5 18.40625 
Q 89.5 9.28125 84.9375 3.921875 
Q 80.375 -1.421875 72.703125 -1.421875 
Q 64.890625 -1.421875 60.34375 3.921875 
Q 55.8125 9.28125 55.8125 18.40625 
Q 55.8125 27.59375 60.375 32.9375 
Q 64.9375 38.28125 72.703125 38.28125 
M 22.3125 68.015625 
Q 18.109375 68.015625 15.6875 64.375 
Q 13.28125 60.75 13.28125 54.390625 
Q 13.28125 47.953125 15.671875 44.328125 
Q 18.0625 40.71875 22.3125 40.71875 
Q 26.5625 40.71875 28.96875 44.328125 
Q 31.390625 47.953125 31.390625 54.390625 
Q 31.390625 60.6875 28.953125 64.34375 
Q 26.515625 68.015625 22.3125 68.015625 
M 66.40625 74.21875 
L 74.21875 74.21875 
L 28.609375 -1.421875 
L 20.796875 -1.421875 
z
M 22.3125 74.21875 
Q 30.03125 74.21875 34.609375 68.875 
Q 39.203125 63.53125 39.203125 54.390625 
Q 39.203125 45.171875 34.640625 39.84375 
Q 30.078125 34.515625 22.3125 34.515625 
Q 14.546875 34.515625 10.03125 39.859375 
Q 5.515625 45.21875 5.515625 54.390625 
Q 5.515625 63.484375 10.046875 68.84375 
Q 14.59375 74.21875 22.3125 74.21875 
" id="BitstreamVeraSans-Roman-25"/>
      <path d="M 9.421875 54.6875 
L 18.40625 54.6875 
L 18.40625 0 
L 9.421875 0 
z
M 9.421875 75.984375 
L 18.40625 75.984375 
L 18.40625 64.59375 
L 9.421875 64.59375 
z
" id="BitstreamVeraSans-Roman-69"/>
      <path d="M 54.890625 33.015625 
L 54.890625 0 
L 45.90625 0 
L 45.90625 32.71875 
Q 45.90625 40.484375 42.875 44.328125 
Q 39.84375 48.1875 33.796875 48.1875 
Q 26.515625 48.1875 22.3125 43.546875 
Q 18.109375 38.921875 18.109375 30.90625 
L 18.109375 0 
L 9.078125 0 
L 9.078125 54.6875 
L 18.109375 54.6875 
L 18.109375 46.1875 
Q 21.34375 51.125 25.703125 53.5625 
Q 30.078125 56 35.796875 56 
Q 45.21875 56 50.046875 50.171875 
Q 54.890625 44.34375 54.890625 33.015625 
" id="BitstreamVeraSans-Roman-6e"/>
      <path d="M 31 75.875 
Q 24.46875 64.65625 21.28125 53.65625 
Q 18.109375 42.671875 18.109375 31.390625 
Q 18.109375 20.125 21.3125 9.0625 
Q 24.515625 -2 31 -13.1875 
L 23.1875 -13.1875 
Q 15.875 -1.703125 12.234375 9.375 
Q 8.59375 20.453125 8.59375 31.390625 
Q 8.59375 42.28125 12.203125 53.3125 
Q 15.828125 64.359375 23.1875 75.875 
z
" id="BitstreamVeraSans-Roman-28"/>
     </defs>
     <g transform="translate(14.7984375 180.781974432)rotate(-90.0)scale(0.1 -0.1)">
      <use xlink:href="#BitstreamVeraSans-Roman-42"/>
      <use x="68.603515625" xlink:href="#BitstreamVeraSans-Roman-61"/>
      <use x="129.8828125" xlink:href="#BitstreamVeraSans-Roman-73"/>
      <use x="181.982421875" xlink:href="#BitstreamVeraSans-Roman-69"/>
      <use x="209.765625" xlink:href="#BitstreamVeraSans-Roman-6e"/>
      <use x="273.14453125" xlink:href="#BitstreamVeraSans-Roman-20"/>
      <use x="304.931640625" xlink:href="#BitstreamVeraSans-Roman-73"/>
      <use x="357.03125" xlink:href="#BitstreamVeraSans-Roman-69"/>
      <use x="384.814453125" xlink:href="#BitstreamVeraSans-Roman-7a"/>
      <use x="437.3046875" xlink:href="#BitstreamVeraSans-Roman-65"/>
      <use x="498.828125" xlink:href="#BitstreamVeraSans-Roman-20"/>
      <use x="530.615234375" xlink:href="#BitstreamVeraSans-Roman-28"/>
      <use x="569.62890625" xlink:href="#BitstreamVeraSans-Roman-25"/>
      <use x="664.6484375" xlink:href="#BitstreamVeraSans-Roman-29"/>
     </g>
    </g>
   </g>
   <g id="text_13">
    <!-- 00 -->
    <g transform="translate(71.4266544118 228.631107955)scale(0.1 -0.1)">
     <use xlink:href="#BitstreamVeraSans-Roman-30"/>
     <use x="63.623046875" xlink:href="#BitstreamVeraSans-Roman-30"/>
    </g>
   </g>
   <g id="text_14">
    <!-- 01 -->
    <g transform="translate(104.250183824 211.466068448)scale(0.1 -0.1)">
     <use xlink:href="#BitstreamVeraSans-Roman-30"/>
     <use x="63.623046875" xlink:href="#BitstreamVeraSans-Roman-31"/>
    </g>
   </g>
   <g id="text_15">
    <!-- 10 -->
    <g transform="translate(137.073713235 144.713139205)scale(0.1 -0.1)">
     <use xlink:href="#BitstreamVeraSans-Roman-31"/>
     <use x="63.623046875" xlink:href="#BitstreamVeraSans-Roman-30"/>
    </g>
   </g>
   <g id="text_16">
    <!-- 11 -->
    <g transform="translate(169.897242647 231.405255682)scale(0.1 -0.1)">
     <use xlink:href="#BitstreamVeraSans-Roman-31"/>
     <use x="63.623046875" xlink:href="#BitstreamVeraSans-Roman-31"/>
    </g>
   </g>
   <g id="text_17">
    <!-- ?? -->
    <defs>
     <path d="M 19.09375 12.40625 
L 29 12.40625 
L 29 0 
L 19.09375 0 
z
M 28.71875 19.578125 
L 19.390625 19.578125 
L 19.390625 27.09375 
Q 19.390625 32.03125 20.75 35.203125 
Q 22.125 38.375 26.515625 42.578125 
L 30.90625 46.921875 
Q 33.6875 49.515625 34.9375 51.8125 
Q 36.1875 54.109375 36.1875 56.5 
Q 36.1875 60.84375 32.984375 63.53125 
Q 29.78125 66.21875 24.515625 66.21875 
Q 20.65625 66.21875 16.28125 64.5 
Q 11.921875 62.796875 7.171875 59.515625 
L 7.171875 68.703125 
Q 11.765625 71.484375 16.46875 72.84375 
Q 21.1875 74.21875 26.21875 74.21875 
Q 35.203125 74.21875 40.640625 69.484375 
Q 46.09375 64.75 46.09375 56.984375 
Q 46.09375 53.265625 44.328125 49.921875 
Q 42.578125 46.578125 38.1875 42.390625 
L 33.890625 38.1875 
Q 31.59375 35.890625 30.640625 34.59375 
Q 29.6875 33.296875 29.296875 32.078125 
Q 29 31.0625 28.859375 29.59375 
Q 28.71875 28.125 28.71875 25.59375 
z
" id="BitstreamVeraSans-Roman-3f"/>
    </defs>
    <g transform="translate(203.775459559 163.265250799)scale(0.1 -0.1)">
     <use xlink:href="#BitstreamVeraSans-Roman-3f"/>
     <use x="53.076171875" xlink:href="#BitstreamVeraSans-Roman-3f"/>
    </g>
   </g>
   <g id="patch_10">
    <path d="M 133.687661 123.021309 
Q 137.231669 129.010637 140.206322 134.037762 
" style="fill:none;stroke:#000000;stroke-linecap:round;"/>
    <path d="M 139.890576 129.576786 
L 140.206322 134.037762 
L 136.448093 131.613773 
" style="fill:none;stroke:#000000;stroke-linecap:round;"/>
   </g>
   <g id="text_18">
    <!-- Rac1 -->
    <defs>
     <path d="M 48.78125 52.59375 
L 48.78125 44.1875 
Q 44.96875 46.296875 41.140625 47.34375 
Q 37.3125 48.390625 33.40625 48.390625 
Q 24.65625 48.390625 19.8125 42.84375 
Q 14.984375 37.3125 14.984375 27.296875 
Q 14.984375 17.28125 19.8125 11.734375 
Q 24.65625 6.203125 33.40625 6.203125 
Q 37.3125 6.203125 41.140625 7.25 
Q 44.96875 8.296875 48.78125 10.40625 
L 48.78125 2.09375 
Q 45.015625 0.34375 40.984375 -0.53125 
Q 36.96875 -1.421875 32.421875 -1.421875 
Q 20.0625 -1.421875 12.78125 6.34375 
Q 5.515625 14.109375 5.515625 27.296875 
Q 5.515625 40.671875 12.859375 48.328125 
Q 20.21875 56 33.015625 56 
Q 37.15625 56 41.109375 55.140625 
Q 45.0625 54.296875 48.78125 52.59375 
" id="BitstreamVeraSans-Roman-63"/>
     <path d="M 44.390625 34.1875 
Q 47.5625 33.109375 50.5625 29.59375 
Q 53.5625 26.078125 56.59375 19.921875 
L 66.609375 0 
L 56 0 
L 46.6875 18.703125 
Q 43.0625 26.03125 39.671875 28.421875 
Q 36.28125 30.8125 30.421875 30.8125 
L 19.671875 30.8125 
L 19.671875 0 
L 9.8125 0 
L 9.8125 72.90625 
L 32.078125 72.90625 
Q 44.578125 72.90625 50.734375 67.671875 
Q 56.890625 62.453125 56.890625 51.90625 
Q 56.890625 45.015625 53.6875 40.46875 
Q 50.484375 35.9375 44.390625 34.1875 
M 19.671875 64.796875 
L 19.671875 38.921875 
L 32.078125 38.921875 
Q 39.203125 38.921875 42.84375 42.21875 
Q 46.484375 45.515625 46.484375 51.90625 
Q 46.484375 58.296875 42.84375 61.546875 
Q 39.203125 64.796875 32.078125 64.796875 
z
" id="BitstreamVeraSans-Roman-52"/>
    </defs>
    <g transform="translate(115.860661765 116.722670455)scale(0.1 -0.1)">
     <use xlink:href="#BitstreamVeraSans-Roman-52"/>
     <use x="69.451171875" xlink:href="#BitstreamVeraSans-Roman-61"/>
     <use x="130.73046875" xlink:href="#BitstreamVeraSans-Roman-63"/>
     <use x="185.7109375" xlink:href="#BitstreamVeraSans-Roman-31"/>
    </g>
   </g>
   <g id="patch_11">
    <path d="M 153.593382 122.998718 
Q 149.862438 129.011324 146.720987 134.073931 
" style="fill:none;stroke:#000000;stroke-linecap:round;"/>
    <path d="M 150.529432 131.72963 
L 146.720987 134.073931 
L 147.130614 129.620594 
" style="fill:none;stroke:#000000;stroke-linecap:round;"/>
   </g>
   <g id="text_19">
    <!-- RhoA -->
    <defs>
     <path d="M 54.890625 33.015625 
L 54.890625 0 
L 45.90625 0 
L 45.90625 32.71875 
Q 45.90625 40.484375 42.875 44.328125 
Q 39.84375 48.1875 33.796875 48.1875 
Q 26.515625 48.1875 22.3125 43.546875 
Q 18.109375 38.921875 18.109375 30.90625 
L 18.109375 0 
L 9.078125 0 
L 9.078125 75.984375 
L 18.109375 75.984375 
L 18.109375 46.1875 
Q 21.34375 51.125 25.703125 53.5625 
Q 30.078125 56 35.796875 56 
Q 45.21875 56 50.046875 50.171875 
Q 54.890625 44.34375 54.890625 33.015625 
" id="BitstreamVeraSans-Roman-68"/>
     <path d="M 30.609375 48.390625 
Q 23.390625 48.390625 19.1875 42.75 
Q 14.984375 37.109375 14.984375 27.296875 
Q 14.984375 17.484375 19.15625 11.84375 
Q 23.34375 6.203125 30.609375 6.203125 
Q 37.796875 6.203125 41.984375 11.859375 
Q 46.1875 17.53125 46.1875 27.296875 
Q 46.1875 37.015625 41.984375 42.703125 
Q 37.796875 48.390625 30.609375 48.390625 
M 30.609375 56 
Q 42.328125 56 49.015625 48.375 
Q 55.71875 40.765625 55.71875 27.296875 
Q 55.71875 13.875 49.015625 6.21875 
Q 42.328125 -1.421875 30.609375 -1.421875 
Q 18.84375 -1.421875 12.171875 6.21875 
Q 5.515625 13.875 5.515625 27.296875 
Q 5.515625 40.765625 12.171875 48.375 
Q 18.84375 56 30.609375 56 
" id="BitstreamVeraSans-Roman-6f"/>
    </defs>
    <g transform="translate(146.077389706 116.722670455)scale(0.1 -0.1)">
     <use xlink:href="#BitstreamVeraSans-Roman-52"/>
     <use x="69.482421875" xlink:href="#BitstreamVeraSans-Roman-68"/>
     <use x="132.861328125" xlink:href="#BitstreamVeraSans-Roman-6f"/>
     <use x="194.04296875" xlink:href="#BitstreamVeraSans-Roman-41"/>
    </g>
   </g>
   <g id="text_20">
    <!-- v04_Rac1_dominant -->
    <defs>
     <path d="M 18.3125 70.21875 
L 18.3125 54.6875 
L 36.8125 54.6875 
L 36.8125 47.703125 
L 18.3125 47.703125 
L 18.3125 18.015625 
Q 18.3125 11.328125 20.140625 9.421875 
Q 21.96875 7.515625 27.59375 7.515625 
L 36.8125 7.515625 
L 36.8125 0 
L 27.59375 0 
Q 17.1875 0 13.234375 3.875 
Q 9.28125 7.765625 9.28125 18.015625 
L 9.28125 47.703125 
L 2.6875 47.703125 
L 2.6875 54.6875 
L 9.28125 54.6875 
L 9.28125 70.21875 
z
" id="BitstreamVeraSans-Roman-74"/>
     <path d="M 50.984375 -16.609375 
L 50.984375 -23.578125 
L -0.984375 -23.578125 
L -0.984375 -16.609375 
z
" id="BitstreamVeraSans-Roman-5f"/>
     <path d="M 45.40625 46.390625 
L 45.40625 75.984375 
L 54.390625 75.984375 
L 54.390625 0 
L 45.40625 0 
L 45.40625 8.203125 
Q 42.578125 3.328125 38.25 0.953125 
Q 33.9375 -1.421875 27.875 -1.421875 
Q 17.96875 -1.421875 11.734375 6.484375 
Q 5.515625 14.40625 5.515625 27.296875 
Q 5.515625 40.1875 11.734375 48.09375 
Q 17.96875 56 27.875 56 
Q 33.9375 56 38.25 53.625 
Q 42.578125 51.265625 45.40625 46.390625 
M 14.796875 27.296875 
Q 14.796875 17.390625 18.875 11.75 
Q 22.953125 6.109375 30.078125 6.109375 
Q 37.203125 6.109375 41.296875 11.75 
Q 45.40625 17.390625 45.40625 27.296875 
Q 45.40625 37.203125 41.296875 42.84375 
Q 37.203125 48.484375 30.078125 48.484375 
Q 22.953125 48.484375 18.875 42.84375 
Q 14.796875 37.203125 14.796875 27.296875 
" id="BitstreamVeraSans-Roman-64"/>
     <path d="M 2.984375 54.6875 
L 12.5 54.6875 
L 29.59375 8.796875 
L 46.6875 54.6875 
L 56.203125 54.6875 
L 35.6875 0 
L 23.484375 0 
z
" id="BitstreamVeraSans-Roman-76"/>
     <path d="M 52 44.1875 
Q 55.375 50.25 60.0625 53.125 
Q 64.75 56 71.09375 56 
Q 79.640625 56 84.28125 50.015625 
Q 88.921875 44.046875 88.921875 33.015625 
L 88.921875 0 
L 79.890625 0 
L 79.890625 32.71875 
Q 79.890625 40.578125 77.09375 44.375 
Q 74.3125 48.1875 68.609375 48.1875 
Q 61.625 48.1875 57.5625 43.546875 
Q 53.515625 38.921875 53.515625 30.90625 
L 53.515625 0 
L 44.484375 0 
L 44.484375 32.71875 
Q 44.484375 40.625 41.703125 44.40625 
Q 38.921875 48.1875 33.109375 48.1875 
Q 26.21875 48.1875 22.15625 43.53125 
Q 18.109375 38.875 18.109375 30.90625 
L 18.109375 0 
L 9.078125 0 
L 9.078125 54.6875 
L 18.109375 54.6875 
L 18.109375 46.1875 
Q 21.1875 51.21875 25.484375 53.609375 
Q 29.78125 56 35.6875 56 
Q 41.65625 56 45.828125 52.96875 
Q 50 49.953125 52 44.1875 
" id="BitstreamVeraSans-Roman-6d"/>
    </defs>
    <g transform="translate(82.6637132353 16.318125)scale(0.12 -0.12)">
     <use xlink:href="#BitstreamVeraSans-Roman-76"/>
     <use x="59.1796875" xlink:href="#BitstreamVeraSans-Roman-30"/>
     <use x="122.802734375" xlink:href="#BitstreamVeraSans-Roman-34"/>
     <use x="186.42578125" xlink:href="#BitstreamVeraSans-Roman-5f"/>
     <use x="236.42578125" xlink:href="#BitstreamVeraSans-Roman-52"/>
     <use x="305.876953125" xlink:href="#BitstreamVeraSans-Roman-61"/>
     <use x="367.15625" xlink:href="#BitstreamVeraSans-Roman-63"/>
     <use x="422.13671875" xlink:href="#BitstreamVeraSans-Roman-31"/>
     <use x="485.759765625" xlink:href="#BitstreamVeraSans-Roman-5f"/>
     <use x="535.759765625" xlink:href="#BitstreamVeraSans-Roman-64"/>
     <use x="599.236328125" xlink:href="#BitstreamVeraSans-Roman-6f"/>
     <use x="660.41796875" xlink:href="#BitstreamVeraSans-Roman-6d"/>
     <use x="757.830078125" xlink:href="#BitstreamVeraSans-Roman-69"/>
     <use x="785.61328125" xlink:href="#BitstreamVeraSans-Roman-6e"/>
     <use x="848.9921875" xlink:href="#BitstreamVeraSans-Roman-61"/>
     <use x="910.271484375" xlink:href="#BitstreamVeraSans-Roman-6e"/>
     <use x="973.650390625" xlink:href="#BitstreamVeraSans-Roman-74"/>
    </g>
   </g>
  </g>
  <g id="axes_2">
   <g id="patch_12">
    <path d="M 281.295037 234.37267 
L 478.236213 234.37267 
L 478.236213 56.827216 
L 281.295037 56.827216 
z
" style="fill:#ffffff;"/>
   </g>
   <g id="patch_13">
    <path clip-path="url(#p05132701bd)" d="M 300.989154 234.37267 
L 327.247978 234.37267 
L 327.247978 234.37267 
L 300.989154 234.37267 
z
" style="fill:#1f77b4;stroke:#000000;stroke-linejoin:miter;"/>
   </g>
   <g id="patch_14">
    <path clip-path="url(#p05132701bd)" d="M 333.812684 234.37267 
L 360.071507 234.37267 
L 360.071507 133.636432 
L 333.812684 133.636432 
z
" style="fill:#1f77b4;stroke:#000000;stroke-linejoin:miter;"/>
   </g>
   <g id="patch_15">
    <path clip-path="url(#p05132701bd)" d="M 366.636213 234.37267 
L 392.895037 234.37267 
L 392.895037 213.739946 
L 366.636213 213.739946 
z
" style="fill:#1f77b4;stroke:#000000;stroke-linejoin:miter;"/>
   </g>
   <g id="patch_16">
    <path clip-path="url(#p05132701bd)" d="M 399.459743 234.37267 
L 425.718566 234.37267 
L 425.718566 234.37267 
L 399.459743 234.37267 
z
" style="fill:#1f77b4;stroke:#000000;stroke-linejoin:miter;"/>
   </g>
   <g id="patch_17">
    <path clip-path="url(#p05132701bd)" d="M 432.283272 234.37267 
L 458.542096 234.37267 
L 458.542096 178.196183 
L 432.283272 178.196183 
z
" style="fill:#1f77b4;stroke:#000000;stroke-linejoin:miter;"/>
   </g>
   <g id="patch_18">
    <path d="M 281.295037 234.37267 
L 478.236213 234.37267 
" style="fill:none;stroke:#000000;stroke-linecap:square;stroke-linejoin:miter;"/>
   </g>
   <g id="patch_19">
    <path d="M 281.295037 234.37267 
L 281.295037 56.827216 
" style="fill:none;stroke:#000000;stroke-linecap:square;stroke-linejoin:miter;"/>
   </g>
   <g id="matplotlib.axis_3">
    <g id="xtick_6">
     <g id="text_21">
      <!-- A -->
      <g transform="translate(310.698253676 245.971107955)scale(0.1 -0.1)">
       <use xlink:href="#BitstreamVeraSans-Roman-41"/>
      </g>
     </g>
    </g>
    <g id="xtick_7">
     <g id="text_22">
      <!-- B -->
      <g transform="translate(343.511626838 245.971107955)scale(0.1 -0.1)">
       <use xlink:href="#BitstreamVeraSans-Roman-42"/>
      </g>
     </g>
    </g>
    <g id="xtick_8">
     <g id="text_23">
      <!-- C -->
      <g transform="translate(376.27421875 245.971107955)scale(0.1 -0.1)">
       <use xlink:href="#BitstreamVeraSans-Roman-43"/>
      </g>
     </g>
    </g>
    <g id="xtick_9">
     <g id="text_24">
      <!-- D -->
      <g transform="translate(408.739154412 245.971107955)scale(0.1 -0.1)">
       <use xlink:href="#BitstreamVeraSans-Roman-44"/>
      </g>
     </g>
    </g>
    <g id="xtick_10">
     <g id="text_25">
      <!-- E -->
      <g transform="translate(442.253308824 245.971107955)scale(0.1 -0.1)">
       <use xlink:href="#BitstreamVeraSans-Roman-45"/>
      </g>
     </g>
    </g>
   </g>
   <g id="matplotlib.axis_4">
    <g id="ytick_7">
     <g id="line2d_7">
      <g>
       <use style="stroke:#000000;stroke-width:0.5;" x="281.295036765" xlink:href="#m3506ddeb3c" y="234.372670455"/>
      </g>
     </g>
     <g id="text_26">
      <!-- 0 -->
      <g transform="translate(270.932536765 237.132045455)scale(0.1 -0.1)">
       <use xlink:href="#BitstreamVeraSans-Roman-30"/>
      </g>
     </g>
    </g>
    <g id="ytick_8">
     <g id="line2d_8">
      <g>
       <use style="stroke:#000000;stroke-width:0.5;" x="281.295036765" xlink:href="#m3506ddeb3c" y="198.863579545"/>
      </g>
     </g>
     <g id="text_27">
      <!-- 20 -->
      <g transform="translate(264.570036765 201.622954545)scale(0.1 -0.1)">
       <use xlink:href="#BitstreamVeraSans-Roman-32"/>
       <use x="63.623046875" xlink:href="#BitstreamVeraSans-Roman-30"/>
      </g>
     </g>
    </g>
    <g id="ytick_9">
     <g id="line2d_9">
      <g>
       <use style="stroke:#000000;stroke-width:0.5;" x="281.295036765" xlink:href="#m3506ddeb3c" y="163.354488636"/>
      </g>
     </g>
     <g id="text_28">
      <!-- 40 -->
      <g transform="translate(264.570036765 166.113863636)scale(0.1 -0.1)">
       <use xlink:href="#BitstreamVeraSans-Roman-34"/>
       <use x="63.623046875" xlink:href="#BitstreamVeraSans-Roman-30"/>
      </g>
     </g>
    </g>
    <g id="ytick_10">
     <g id="line2d_10">
      <g>
       <use style="stroke:#000000;stroke-width:0.5;" x="281.295036765" xlink:href="#m3506ddeb3c" y="127.845397727"/>
      </g>
     </g>
     <g id="text_29">
      <!-- 60 -->
      <g transform="translate(264.570036765 130.604772727)scale(0.1 -0.1)">
       <use xlink:href="#BitstreamVeraSans-Roman-36"/>
       <use x="63.623046875" xlink:href="#BitstreamVeraSans-Roman-30"/>
      </g>
     </g>
    </g>
    <g id="ytick_11">
     <g id="line2d_11">
      <g>
       <use style="stroke:#000000;stroke-width:0.5;" x="281.295036765" xlink:href="#m3506ddeb3c" y="92.3363068182"/>
      </g>
     </g>
     <g id="text_30">
      <!-- 80 -->
      <g transform="translate(264.570036765 95.0956818182)scale(0.1 -0.1)">
       <use xlink:href="#BitstreamVeraSans-Roman-38"/>
       <use x="63.623046875" xlink:href="#BitstreamVeraSans-Roman-30"/>
      </g>
     </g>
    </g>
    <g id="ytick_12">
     <g id="line2d_12">
      <g>
       <use style="stroke:#000000;stroke-width:0.5;" x="281.295036765" xlink:href="#m3506ddeb3c" y="56.8272159091"/>
      </g>
     </g>
     <g id="text_31">
      <!-- 100 -->
      <g transform="translate(258.207536765 59.5865909091)scale(0.1 -0.1)">
       <use xlink:href="#BitstreamVeraSans-Roman-31"/>
       <use x="63.623046875" xlink:href="#BitstreamVeraSans-Roman-30"/>
       <use x="127.24609375" xlink:href="#BitstreamVeraSans-Roman-30"/>
      </g>
     </g>
    </g>
   </g>
   <g id="text_32">
    <!-- 00 -->
    <g transform="translate(307.756066176 231.405255682)scale(0.1 -0.1)">
     <use xlink:href="#BitstreamVeraSans-Roman-30"/>
     <use x="63.623046875" xlink:href="#BitstreamVeraSans-Roman-30"/>
    </g>
   </g>
   <g id="text_33">
    <!-- 01 -->
    <g transform="translate(340.579595588 130.669016779)scale(0.1 -0.1)">
     <use xlink:href="#BitstreamVeraSans-Roman-30"/>
     <use x="63.623046875" xlink:href="#BitstreamVeraSans-Roman-31"/>
    </g>
   </g>
   <g id="text_34">
    <!-- 10 -->
    <g transform="translate(373.403125 210.772531516)scale(0.1 -0.1)">
     <use xlink:href="#BitstreamVeraSans-Roman-31"/>
     <use x="63.623046875" xlink:href="#BitstreamVeraSans-Roman-30"/>
    </g>
   </g>
   <g id="text_35">
    <!-- 11 -->
    <g transform="translate(406.226654412 231.405255682)scale(0.1 -0.1)">
     <use xlink:href="#BitstreamVeraSans-Roman-31"/>
     <use x="63.623046875" xlink:href="#BitstreamVeraSans-Roman-31"/>
    </g>
   </g>
   <g id="text_36">
    <!-- ?? -->
    <g transform="translate(440.104871324 175.228767755)scale(0.1 -0.1)">
     <use xlink:href="#BitstreamVeraSans-Roman-3f"/>
     <use x="53.076171875" xlink:href="#BitstreamVeraSans-Roman-3f"/>
    </g>
   </g>
   <g id="text_37">
    <!-- v04_RhoA_dominant -->
    <g transform="translate(318.2065625 16.318125)scale(0.12 -0.12)">
     <use xlink:href="#BitstreamVeraSans-Roman-76"/>
     <use x="59.1796875" xlink:href="#BitstreamVeraSans-Roman-30"/>
     <use x="122.802734375" xlink:href="#BitstreamVeraSans-Roman-34"/>
     <use x="186.42578125" xlink:href="#BitstreamVeraSans-Roman-5f"/>
     <use x="236.42578125" xlink:href="#BitstreamVeraSans-Roman-52"/>
     <use x="305.908203125" xlink:href="#BitstreamVeraSans-Roman-68"/>
     <use x="369.287109375" xlink:href="#BitstreamVeraSans-Roman-6f"/>
     <use x="430.46875" xlink:href="#BitstreamVeraSans-Roman-41"/>
     <use x="498.876953125" xlink:href="#BitstreamVeraSans-Roman-5f"/>
     <use x="548.876953125" xlink:href="#BitstreamVeraSans-Roman-64"/>
     <use x="612.353515625" xlink:href="#BitstreamVeraSans-Roman-6f"/>
     <use x="673.53515625" xlink:href="#BitstreamVeraSans-Roman-6d"/>
     <use x="770.947265625" xlink:href="#BitstreamVeraSans-Roman-69"/>
     <use x="798.73046875" xlink:href="#BitstreamVeraSans-Roman-6e"/>
     <use x="862.109375" xlink:href="#BitstreamVeraSans-Roman-61"/>
     <use x="923.388671875" xlink:href="#BitstreamVeraSans-Roman-6e"/>
     <use x="986.767578125" xlink:href="#BitstreamVeraSans-Roman-74"/>
    </g>
   </g>
  </g>
  <g id="axes_3">
   <g id="patch_20">
    <path d="M 517.624449 234.37267 
L 714.565625 234.37267 
L 714.565625 56.827216 
L 517.624449 56.827216 
z
" style="fill:#ffffff;"/>
   </g>
   <g id="patch_21">
    <path clip-path="url(#pc245f3410f)" d="M 537.318566 234.37267 
L 563.57739 234.37267 
L 563.57739 234.37267 
L 537.318566 234.37267 
z
" style="fill:#1f77b4;stroke:#000000;stroke-linejoin:miter;"/>
   </g>
   <g id="patch_22">
    <path clip-path="url(#pc245f3410f)" d="M 570.142096 234.37267 
L 596.400919 234.37267 
L 596.400919 234.37267 
L 570.142096 234.37267 
z
" style="fill:#1f77b4;stroke:#000000;stroke-linejoin:miter;"/>
   </g>
   <g id="patch_23">
    <path clip-path="url(#pc245f3410f)" d="M 602.965625 234.37267 
L 629.224449 234.37267 
L 629.224449 234.37267 
L 602.965625 234.37267 
z
" style="fill:#1f77b4;stroke:#000000;stroke-linejoin:miter;"/>
   </g>
   <g id="patch_24">
    <path clip-path="url(#pc245f3410f)" d="M 635.789154 234.37267 
L 662.047978 234.37267 
L 662.047978 234.37267 
L 635.789154 234.37267 
z
" style="fill:#1f77b4;stroke:#000000;stroke-linejoin:miter;"/>
   </g>
   <g id="patch_25">
    <path clip-path="url(#pc245f3410f)" d="M 668.612684 234.37267 
L 694.871507 234.37267 
L 694.871507 56.827216 
L 668.612684 56.827216 
z
" style="fill:#1f77b4;stroke:#000000;stroke-linejoin:miter;"/>
   </g>
   <g id="patch_26">
    <path d="M 517.624449 234.37267 
L 714.565625 234.37267 
" style="fill:none;stroke:#000000;stroke-linecap:square;stroke-linejoin:miter;"/>
   </g>
   <g id="patch_27">
    <path d="M 517.624449 234.37267 
L 517.624449 56.827216 
" style="fill:none;stroke:#000000;stroke-linecap:square;stroke-linejoin:miter;"/>
   </g>
   <g id="matplotlib.axis_5">
    <g id="xtick_11">
     <g id="text_38">
      <!-- A -->
      <g transform="translate(547.027665441 245.971107955)scale(0.1 -0.1)">
       <use xlink:href="#BitstreamVeraSans-Roman-41"/>
      </g>
     </g>
    </g>
    <g id="xtick_12">
     <g id="text_39">
      <!-- B -->
      <g transform="translate(579.841038603 245.971107955)scale(0.1 -0.1)">
       <use xlink:href="#BitstreamVeraSans-Roman-42"/>
      </g>
     </g>
    </g>
    <g id="xtick_13">
     <g id="text_40">
      <!-- C -->
      <g transform="translate(612.603630515 245.971107955)scale(0.1 -0.1)">
       <use xlink:href="#BitstreamVeraSans-Roman-43"/>
      </g>
     </g>
    </g>
    <g id="xtick_14">
     <g id="text_41">
      <!-- D -->
      <g transform="translate(645.068566176 245.971107955)scale(0.1 -0.1)">
       <use xlink:href="#BitstreamVeraSans-Roman-44"/>
      </g>
     </g>
    </g>
    <g id="xtick_15">
     <g id="text_42">
      <!-- E -->
      <g transform="translate(678.582720588 245.971107955)scale(0.1 -0.1)">
       <use xlink:href="#BitstreamVeraSans-Roman-45"/>
      </g>
     </g>
    </g>
   </g>
   <g id="matplotlib.axis_6">
    <g id="ytick_13">
     <g id="line2d_13">
      <g>
       <use style="stroke:#000000;stroke-width:0.5;" x="517.624448529" xlink:href="#m3506ddeb3c" y="234.372670455"/>
      </g>
     </g>
     <g id="text_43">
      <!-- 0 -->
      <g transform="translate(507.261948529 237.132045455)scale(0.1 -0.1)">
       <use xlink:href="#BitstreamVeraSans-Roman-30"/>
      </g>
     </g>
    </g>
    <g id="ytick_14">
     <g id="line2d_14">
      <g>
       <use style="stroke:#000000;stroke-width:0.5;" x="517.624448529" xlink:href="#m3506ddeb3c" y="198.863579545"/>
      </g>
     </g>
     <g id="text_44">
      <!-- 20 -->
      <g transform="translate(500.899448529 201.622954545)scale(0.1 -0.1)">
       <use xlink:href="#BitstreamVeraSans-Roman-32"/>
       <use x="63.623046875" xlink:href="#BitstreamVeraSans-Roman-30"/>
      </g>
     </g>
    </g>
    <g id="ytick_15">
     <g id="line2d_15">
      <g>
       <use style="stroke:#000000;stroke-width:0.5;" x="517.624448529" xlink:href="#m3506ddeb3c" y="163.354488636"/>
      </g>
     </g>
     <g id="text_45">
      <!-- 40 -->
      <g transform="translate(500.899448529 166.113863636)scale(0.1 -0.1)">
       <use xlink:href="#BitstreamVeraSans-Roman-34"/>
       <use x="63.623046875" xlink:href="#BitstreamVeraSans-Roman-30"/>
      </g>
     </g>
    </g>
    <g id="ytick_16">
     <g id="line2d_16">
      <g>
       <use style="stroke:#000000;stroke-width:0.5;" x="517.624448529" xlink:href="#m3506ddeb3c" y="127.845397727"/>
      </g>
     </g>
     <g id="text_46">
      <!-- 60 -->
      <g transform="translate(500.899448529 130.604772727)scale(0.1 -0.1)">
       <use xlink:href="#BitstreamVeraSans-Roman-36"/>
       <use x="63.623046875" xlink:href="#BitstreamVeraSans-Roman-30"/>
      </g>
     </g>
    </g>
    <g id="ytick_17">
     <g id="line2d_17">
      <g>
       <use style="stroke:#000000;stroke-width:0.5;" x="517.624448529" xlink:href="#m3506ddeb3c" y="92.3363068182"/>
      </g>
     </g>
     <g id="text_47">
      <!-- 80 -->
      <g transform="translate(500.899448529 95.0956818182)scale(0.1 -0.1)">
       <use xlink:href="#BitstreamVeraSans-Roman-38"/>
       <use x="63.623046875" xlink:href="#BitstreamVeraSans-Roman-30"/>
      </g>
     </g>
    </g>
    <g id="ytick_18">
     <g id="line2d_18">
      <g>
       <use style="stroke:#000000;stroke-width:0.5;" x="517.624448529" xlink:href="#m3506ddeb3c" y="56.8272159091"/>
      </g>
     </g>
     <g id="text_48">
      <!-- 100 -->
      <g transform="translate(494.536948529 59.5865909091)scale(0.1 -0.1)">
       <use xlink:href="#BitstreamVeraSans-Roman-31"/>
       <use x="63.623046875" xlink:href="#BitstreamVeraSans-Roman-30"/>
       <use x="127.24609375" xlink:href="#BitstreamVeraSans-Roman-30"/>
      </g>
     </g>
    </g>
   </g>
   <g id="text_49">
    <!-- 00 -->
    <g transform="translate(544.085477941 231.405255682)scale(0.1 -0.1)">
     <use xlink:href="#BitstreamVeraSans-Roman-30"/>
     <use x="63.623046875" xlink:href="#BitstreamVeraSans-Roman-30"/>
    </g>
   </g>
   <g id="text_50">
    <!-- 01 -->
    <g transform="translate(576.909007353 231.405255682)scale(0.1 -0.1)">
     <use xlink:href="#BitstreamVeraSans-Roman-30"/>
     <use x="63.623046875" xlink:href="#BitstreamVeraSans-Roman-31"/>
    </g>
   </g>
   <g id="text_51">
    <!-- 10 -->
    <g transform="translate(609.732536765 231.405255682)scale(0.1 -0.1)">
     <use xlink:href="#BitstreamVeraSans-Roman-31"/>
     <use x="63.623046875" xlink:href="#BitstreamVeraSans-Roman-30"/>
    </g>
   </g>
   <g id="text_52">
    <!-- 11 -->
    <g transform="translate(642.556066176 231.405255682)scale(0.1 -0.1)">
     <use xlink:href="#BitstreamVeraSans-Roman-31"/>
     <use x="63.623046875" xlink:href="#BitstreamVeraSans-Roman-31"/>
    </g>
   </g>
   <g id="text_53">
    <!-- ?? -->
    <g transform="translate(676.434283088 53.8598011364)scale(0.1 -0.1)">
     <use xlink:href="#BitstreamVeraSans-Roman-3f"/>
     <use x="53.076171875" xlink:href="#BitstreamVeraSans-Roman-3f"/>
    </g>
   </g>
   <g id="text_54">
    <!-- v04_equal_oscillations -->
    <defs>
     <path d="M 9.421875 75.984375 
L 18.40625 75.984375 
L 18.40625 0 
L 9.421875 0 
z
" id="BitstreamVeraSans-Roman-6c"/>
     <path d="M 8.5 21.578125 
L 8.5 54.6875 
L 17.484375 54.6875 
L 17.484375 21.921875 
Q 17.484375 14.15625 20.5 10.265625 
Q 23.53125 6.390625 29.59375 6.390625 
Q 36.859375 6.390625 41.078125 11.03125 
Q 45.3125 15.671875 45.3125 23.6875 
L 45.3125 54.6875 
L 54.296875 54.6875 
L 54.296875 0 
L 45.3125 0 
L 45.3125 8.40625 
Q 42.046875 3.421875 37.71875 1 
Q 33.40625 -1.421875 27.6875 -1.421875 
Q 18.265625 -1.421875 13.375 4.4375 
Q 8.5 10.296875 8.5 21.578125 
" id="BitstreamVeraSans-Roman-75"/>
     <path d="M 14.796875 27.296875 
Q 14.796875 17.390625 18.875 11.75 
Q 22.953125 6.109375 30.078125 6.109375 
Q 37.203125 6.109375 41.296875 11.75 
Q 45.40625 17.390625 45.40625 27.296875 
Q 45.40625 37.203125 41.296875 42.84375 
Q 37.203125 48.484375 30.078125 48.484375 
Q 22.953125 48.484375 18.875 42.84375 
Q 14.796875 37.203125 14.796875 27.296875 
M 45.40625 8.203125 
Q 42.578125 3.328125 38.25 0.953125 
Q 33.9375 -1.421875 27.875 -1.421875 
Q 17.96875 -1.421875 11.734375 6.484375 
Q 5.515625 14.40625 5.515625 27.296875 
Q 5.515625 40.1875 11.734375 48.09375 
Q 17.96875 56 27.875 56 
Q 33.9375 56 38.25 53.625 
Q 42.578125 51.265625 45.40625 46.390625 
L 45.40625 54.6875 
L 54.390625 54.6875 
L 54.390625 -20.796875 
L 45.40625 -20.796875 
z
" id="BitstreamVeraSans-Roman-71"/>
    </defs>
    <g transform="translate(548.869724265 16.318125)scale(0.12 -0.12)">
     <use xlink:href="#BitstreamVeraSans-Roman-76"/>
     <use x="59.1796875" xlink:href="#BitstreamVeraSans-Roman-30"/>
     <use x="122.802734375" xlink:href="#BitstreamVeraSans-Roman-34"/>
     <use x="186.42578125" xlink:href="#BitstreamVeraSans-Roman-5f"/>
     <use x="236.42578125" xlink:href="#BitstreamVeraSans-Roman-65"/>
     <use x="297.94921875" xlink:href="#BitstreamVeraSans-Roman-71"/>
     <use x="361.42578125" xlink:href="#BitstreamVeraSans-Roman-75"/>
     <use x="424.8046875" xlink:href="#BitstreamVeraSans-Roman-61"/>
     <use x="486.083984375" xlink:href="#BitstreamVeraSans-Roman-6c"/>
     <use x="513.8671875" xlink:href="#BitstreamVeraSans-Roman-5f"/>
     <use x="563.8671875" xlink:href="#BitstreamVeraSans-Roman-6f"/>
     <use x="625.048828125" xlink:href="#BitstreamVeraSans-Roman-73"/>
     <use x="677.1484375" xlink:href="#BitstreamVeraSans-Roman-63"/>
     <use x="732.12890625" xlink:href="#BitstreamVeraSans-Roman-69"/>
     <use x="759.912109375" xlink:href="#BitstreamVeraSans-Roman-6c"/>
     <use x="787.6953125" xlink:href="#BitstreamVeraSans-Roman-6c"/>
     <use x="815.478515625" xlink:href="#BitstreamVeraSans-Roman-61"/>
     <use x="876.7578125" xlink:href="#BitstreamVeraSans-Roman-74"/>
     <use x="915.966796875" xlink:href="#BitstreamVeraSans-Roman-69"/>
     <use x="943.75" xlink:href="#BitstreamVeraSans-Roman-6f"/>
     <use x="1004.931640625" xlink:href="#BitstreamVeraSans-Roman-6e"/>
     <use x="1068.310546875" xlink:href="#BitstreamVeraSans-Roman-73"/>
    </g>
   </g>
  </g>
  <g id="axes_4">
   <g id="patch_28">
    <path d="M 44.965625 447.427216 
L 241.906801 447.427216 
L 241.906801 269.881761 
L 44.965625 269.881761 
z
" style="fill:#ffffff;"/>
   </g>
   <g id="patch_29">
    <path clip-path="url(#peb24da861c)" d="M 64.659743 447.427216 
L 90.918566 447.427216 
L 90.918566 425.754187 
L 64.659743 425.754187 
z
" style="fill:#1f77b4;stroke:#000000;stroke-linejoin:miter;"/>
   </g>
   <g id="patch_30">
    <path clip-path="url(#peb24da861c)" d="M 97.483272 447.427216 
L 123.742096 447.427216 
L 123.742096 446.907063 
L 97.483272 446.907063 
z
" style="fill:#1f77b4;stroke:#000000;stroke-linejoin:miter;"/>
   </g>
   <g id="patch_31">
    <path clip-path="url(#peb24da861c)" d="M 130.306801 447.427216 
L 156.565625 447.427216 
L 156.565625 447.080448 
L 130.306801 447.080448 
z
" style="fill:#1f77b4;stroke:#000000;stroke-linejoin:miter;"/>
   </g>
   <g id="patch_32">
    <path clip-path="url(#peb24da861c)" d="M 163.130331 447.427216 
L 189.389154 447.427216 
L 189.389154 361.081869 
L 163.130331 361.081869 
z
" style="fill:#1f77b4;stroke:#000000;stroke-linejoin:miter;"/>
   </g>
   <g id="patch_33">
    <path clip-path="url(#peb24da861c)" d="M 195.95386 447.427216 
L 222.212684 447.427216 
L 222.212684 378.76706 
L 195.95386 378.76706 
z
" style="fill:#1f77b4;stroke:#000000;stroke-linejoin:miter;"/>
   </g>
   <g id="patch_34">
    <path d="M 44.965625 447.427216 
L 241.906801 447.427216 
" style="fill:none;stroke:#000000;stroke-linecap:square;stroke-linejoin:miter;"/>
   </g>
   <g id="patch_35">
    <path d="M 44.965625 447.427216 
L 44.965625 269.881761 
" style="fill:none;stroke:#000000;stroke-linecap:square;stroke-linejoin:miter;"/>
   </g>
   <g id="matplotlib.axis_7">
    <g id="xtick_16">
     <g id="text_55">
      <!-- A -->
      <g transform="translate(74.3688419118 459.025653409)scale(0.1 -0.1)">
       <use xlink:href="#BitstreamVeraSans-Roman-41"/>
      </g>
     </g>
    </g>
    <g id="xtick_17">
     <g id="text_56">
      <!-- B -->
      <g transform="translate(107.182215074 459.025653409)scale(0.1 -0.1)">
       <use xlink:href="#BitstreamVeraSans-Roman-42"/>
      </g>
     </g>
    </g>
    <g id="xtick_18">
     <g id="text_57">
      <!-- C -->
      <g transform="translate(139.944806985 459.025653409)scale(0.1 -0.1)">
       <use xlink:href="#BitstreamVeraSans-Roman-43"/>
      </g>
     </g>
    </g>
    <g id="xtick_19">
     <g id="text_58">
      <!-- D -->
      <g transform="translate(172.409742647 459.025653409)scale(0.1 -0.1)">
       <use xlink:href="#BitstreamVeraSans-Roman-44"/>
      </g>
     </g>
    </g>
    <g id="xtick_20">
     <g id="text_59">
      <!-- E -->
      <g transform="translate(205.923897059 459.025653409)scale(0.1 -0.1)">
       <use xlink:href="#BitstreamVeraSans-Roman-45"/>
      </g>
     </g>
    </g>
    <g id="text_60">
     <!-- Attractors -->
     <defs>
      <path d="M 41.109375 46.296875 
Q 39.59375 47.171875 37.8125 47.578125 
Q 36.03125 48 33.890625 48 
Q 26.265625 48 22.1875 43.046875 
Q 18.109375 38.09375 18.109375 28.8125 
L 18.109375 0 
L 9.078125 0 
L 9.078125 54.6875 
L 18.109375 54.6875 
L 18.109375 46.1875 
Q 20.953125 51.171875 25.484375 53.578125 
Q 30.03125 56 36.53125 56 
Q 37.453125 56 38.578125 55.875 
Q 39.703125 55.765625 41.0625 55.515625 
z
" id="BitstreamVeraSans-Roman-72"/>
     </defs>
     <g transform="translate(118.547931985 473.703778409)scale(0.1 -0.1)">
      <use xlink:href="#BitstreamVeraSans-Roman-41"/>
      <use x="68.392578125" xlink:href="#BitstreamVeraSans-Roman-74"/>
      <use x="107.6015625" xlink:href="#BitstreamVeraSans-Roman-74"/>
      <use x="146.810546875" xlink:href="#BitstreamVeraSans-Roman-72"/>
      <use x="187.923828125" xlink:href="#BitstreamVeraSans-Roman-61"/>
      <use x="249.203125" xlink:href="#BitstreamVeraSans-Roman-63"/>
      <use x="304.18359375" xlink:href="#BitstreamVeraSans-Roman-74"/>
      <use x="343.392578125" xlink:href="#BitstreamVeraSans-Roman-6f"/>
      <use x="404.57421875" xlink:href="#BitstreamVeraSans-Roman-72"/>
      <use x="445.6875" xlink:href="#BitstreamVeraSans-Roman-73"/>
     </g>
    </g>
   </g>
   <g id="matplotlib.axis_8">
    <g id="ytick_19">
     <g id="line2d_19">
      <g>
       <use style="stroke:#000000;stroke-width:0.5;" x="44.965625" xlink:href="#m3506ddeb3c" y="447.427215909"/>
      </g>
     </g>
     <g id="text_61">
      <!-- 0 -->
      <g transform="translate(34.603125 450.186590909)scale(0.1 -0.1)">
       <use xlink:href="#BitstreamVeraSans-Roman-30"/>
      </g>
     </g>
    </g>
    <g id="ytick_20">
     <g id="line2d_20">
      <g>
       <use style="stroke:#000000;stroke-width:0.5;" x="44.965625" xlink:href="#m3506ddeb3c" y="411.918125"/>
      </g>
     </g>
     <g id="text_62">
      <!-- 20 -->
      <g transform="translate(28.240625 414.6775)scale(0.1 -0.1)">
       <use xlink:href="#BitstreamVeraSans-Roman-32"/>
       <use x="63.623046875" xlink:href="#BitstreamVeraSans-Roman-30"/>
      </g>
     </g>
    </g>
    <g id="ytick_21">
     <g id="line2d_21">
      <g>
       <use style="stroke:#000000;stroke-width:0.5;" x="44.965625" xlink:href="#m3506ddeb3c" y="376.409034091"/>
      </g>
     </g>
     <g id="text_63">
      <!-- 40 -->
      <g transform="translate(28.240625 379.168409091)scale(0.1 -0.1)">
       <use xlink:href="#BitstreamVeraSans-Roman-34"/>
       <use x="63.623046875" xlink:href="#BitstreamVeraSans-Roman-30"/>
      </g>
     </g>
    </g>
    <g id="ytick_22">
     <g id="line2d_22">
      <g>
       <use style="stroke:#000000;stroke-width:0.5;" x="44.965625" xlink:href="#m3506ddeb3c" y="340.899943182"/>
      </g>
     </g>
     <g id="text_64">
      <!-- 60 -->
      <g transform="translate(28.240625 343.659318182)scale(0.1 -0.1)">
       <use xlink:href="#BitstreamVeraSans-Roman-36"/>
       <use x="63.623046875" xlink:href="#BitstreamVeraSans-Roman-30"/>
      </g>
     </g>
    </g>
    <g id="ytick_23">
     <g id="line2d_23">
      <g>
       <use style="stroke:#000000;stroke-width:0.5;" x="44.965625" xlink:href="#m3506ddeb3c" y="305.390852273"/>
      </g>
     </g>
     <g id="text_65">
      <!-- 80 -->
      <g transform="translate(28.240625 308.150227273)scale(0.1 -0.1)">
       <use xlink:href="#BitstreamVeraSans-Roman-38"/>
       <use x="63.623046875" xlink:href="#BitstreamVeraSans-Roman-30"/>
      </g>
     </g>
    </g>
    <g id="ytick_24">
     <g id="line2d_24">
      <g>
       <use style="stroke:#000000;stroke-width:0.5;" x="44.965625" xlink:href="#m3506ddeb3c" y="269.881761364"/>
      </g>
     </g>
     <g id="text_66">
      <!-- 100 -->
      <g transform="translate(21.878125 272.641136364)scale(0.1 -0.1)">
       <use xlink:href="#BitstreamVeraSans-Roman-31"/>
       <use x="63.623046875" xlink:href="#BitstreamVeraSans-Roman-30"/>
       <use x="127.24609375" xlink:href="#BitstreamVeraSans-Roman-30"/>
      </g>
     </g>
    </g>
    <g id="text_67">
     <!-- Basin size (%) -->
     <g transform="translate(14.7984375 393.836519886)rotate(-90.0)scale(0.1 -0.1)">
      <use xlink:href="#BitstreamVeraSans-Roman-42"/>
      <use x="68.603515625" xlink:href="#BitstreamVeraSans-Roman-61"/>
      <use x="129.8828125" xlink:href="#BitstreamVeraSans-Roman-73"/>
      <use x="181.982421875" xlink:href="#BitstreamVeraSans-Roman-69"/>
      <use x="209.765625" xlink:href="#BitstreamVeraSans-Roman-6e"/>
      <use x="273.14453125" xlink:href="#BitstreamVeraSans-Roman-20"/>
      <use x="304.931640625" xlink:href="#BitstreamVeraSans-Roman-73"/>
      <use x="357.03125" xlink:href="#BitstreamVeraSans-Roman-69"/>
      <use x="384.814453125" xlink:href="#BitstreamVeraSans-Roman-7a"/>
      <use x="437.3046875" xlink:href="#BitstreamVeraSans-Roman-65"/>
      <use x="498.828125" xlink:href="#BitstreamVeraSans-Roman-20"/>
      <use x="530.615234375" xlink:href="#BitstreamVeraSans-Roman-28"/>
      <use x="569.62890625" xlink:href="#BitstreamVeraSans-Roman-25"/>
      <use x="664.6484375" xlink:href="#BitstreamVeraSans-Roman-29"/>
     </g>
    </g>
   </g>
   <g id="text_68">
    <!-- 00 -->
    <g transform="translate(71.4266544118 422.786772461)scale(0.1 -0.1)">
     <use xlink:href="#BitstreamVeraSans-Roman-30"/>
     <use x="63.623046875" xlink:href="#BitstreamVeraSans-Roman-30"/>
    </g>
   </g>
   <g id="text_69">
    <!-- 01 -->
    <g transform="translate(104.250183824 443.939647994)scale(0.1 -0.1)">
     <use xlink:href="#BitstreamVeraSans-Roman-30"/>
     <use x="63.623046875" xlink:href="#BitstreamVeraSans-Roman-31"/>
    </g>
   </g>
   <g id="text_70">
    <!-- 10 -->
    <g transform="translate(137.073713235 444.113033558)scale(0.1 -0.1)">
     <use xlink:href="#BitstreamVeraSans-Roman-31"/>
     <use x="63.623046875" xlink:href="#BitstreamVeraSans-Roman-30"/>
    </g>
   </g>
   <g id="text_71">
    <!-- 11 -->
    <g transform="translate(169.897242647 358.114454013)scale(0.1 -0.1)">
     <use xlink:href="#BitstreamVeraSans-Roman-31"/>
     <use x="63.623046875" xlink:href="#BitstreamVeraSans-Roman-31"/>
    </g>
   </g>
   <g id="text_72">
    <!-- ?? -->
    <g transform="translate(203.775459559 375.799644886)scale(0.1 -0.1)">
     <use xlink:href="#BitstreamVeraSans-Roman-3f"/>
     <use x="53.076171875" xlink:href="#BitstreamVeraSans-Roman-3f"/>
    </g>
   </g>
   <g id="patch_36">
    <path d="M 160.591407 336.036229 
Q 166.890958 342.20726 172.391834 347.595912 
" style="fill:none;stroke:#000000;stroke-linecap:round;"/>
    <path d="M 170.933974 343.36807 
L 172.391834 347.595912 
L 168.134845 346.225495 
" style="fill:none;stroke:#000000;stroke-linecap:round;"/>
   </g>
   <g id="text_73">
    <!-- Actin_BR -->
    <g transform="translate(129.435753676 329.777215909)scale(0.1 -0.1)">
     <use xlink:href="#BitstreamVeraSans-Roman-41"/>
     <use x="68.392578125" xlink:href="#BitstreamVeraSans-Roman-63"/>
     <use x="123.373046875" xlink:href="#BitstreamVeraSans-Roman-74"/>
     <use x="162.58203125" xlink:href="#BitstreamVeraSans-Roman-69"/>
     <use x="190.365234375" xlink:href="#BitstreamVeraSans-Roman-6e"/>
     <use x="253.744140625" xlink:href="#BitstreamVeraSans-Roman-5f"/>
     <use x="303.744140625" xlink:href="#BitstreamVeraSans-Roman-42"/>
     <use x="372.34765625" xlink:href="#BitstreamVeraSans-Roman-52"/>
    </g>
   </g>
   <g id="patch_37">
    <path d="M 191.495115 336.058407 
Q 185.403283 342.206081 180.098404 347.559587 
" style="fill:none;stroke:#000000;stroke-linecap:round;"/>
    <path d="M 184.334548 346.126032 
L 180.098404 347.559587 
L 181.493246 343.310539 
" style="fill:none;stroke:#000000;stroke-linecap:round;"/>
   </g>
   <g id="text_74">
    <!-- Actin_ST -->
    <defs>
     <path d="M -0.296875 72.90625 
L 61.375 72.90625 
L 61.375 64.59375 
L 35.5 64.59375 
L 35.5 0 
L 25.59375 0 
L 25.59375 64.59375 
L -0.296875 64.59375 
z
" id="BitstreamVeraSans-Roman-54"/>
     <path d="M 53.515625 70.515625 
L 53.515625 60.890625 
Q 47.90625 63.578125 42.921875 64.890625 
Q 37.9375 66.21875 33.296875 66.21875 
Q 25.25 66.21875 20.875 63.09375 
Q 16.5 59.96875 16.5 54.203125 
Q 16.5 49.359375 19.40625 46.890625 
Q 22.3125 44.4375 30.421875 42.921875 
L 36.375 41.703125 
Q 47.40625 39.59375 52.65625 34.296875 
Q 57.90625 29 57.90625 20.125 
Q 57.90625 9.515625 50.796875 4.046875 
Q 43.703125 -1.421875 29.984375 -1.421875 
Q 24.8125 -1.421875 18.96875 -0.25 
Q 13.140625 0.921875 6.890625 3.21875 
L 6.890625 13.375 
Q 12.890625 10.015625 18.65625 8.296875 
Q 24.421875 6.59375 29.984375 6.59375 
Q 38.421875 6.59375 43.015625 9.90625 
Q 47.609375 13.234375 47.609375 19.390625 
Q 47.609375 24.75 44.3125 27.78125 
Q 41.015625 30.8125 33.5 32.328125 
L 27.484375 33.5 
Q 16.453125 35.6875 11.515625 40.375 
Q 6.59375 45.0625 6.59375 53.421875 
Q 6.59375 63.09375 13.40625 68.65625 
Q 20.21875 74.21875 32.171875 74.21875 
Q 37.3125 74.21875 42.625 73.28125 
Q 47.953125 72.359375 53.515625 70.515625 
" id="BitstreamVeraSans-Roman-53"/>
    </defs>
    <g transform="translate(178.900919118 329.777215909)scale(0.1 -0.1)">
     <use xlink:href="#BitstreamVeraSans-Roman-41"/>
     <use x="68.392578125" xlink:href="#BitstreamVeraSans-Roman-63"/>
     <use x="123.373046875" xlink:href="#BitstreamVeraSans-Roman-74"/>
     <use x="162.58203125" xlink:href="#BitstreamVeraSans-Roman-69"/>
     <use x="190.365234375" xlink:href="#BitstreamVeraSans-Roman-6e"/>
     <use x="253.744140625" xlink:href="#BitstreamVeraSans-Roman-5f"/>
     <use x="303.744140625" xlink:href="#BitstreamVeraSans-Roman-53"/>
     <use x="367.220703125" xlink:href="#BitstreamVeraSans-Roman-54"/>
    </g>
   </g>
  </g>
  <g id="axes_5">
   <g id="patch_38">
    <path d="M 281.295037 447.427216 
L 478.236213 447.427216 
L 478.236213 269.881761 
L 281.295037 269.881761 
z
" style="fill:#ffffff;"/>
   </g>
   <g id="patch_39">
    <path clip-path="url(#p9825ec5a33)" d="M 300.989154 447.427216 
L 327.247978 447.427216 
L 327.247978 398.619555 
L 300.989154 398.619555 
z
" style="fill:#1f77b4;stroke:#000000;stroke-linejoin:miter;"/>
   </g>
   <g id="patch_40">
    <path clip-path="url(#p9825ec5a33)" d="M 333.812684 447.427216 
L 360.071507 447.427216 
L 360.071507 412.923753 
L 333.812684 412.923753 
z
" style="fill:#1f77b4;stroke:#000000;stroke-linejoin:miter;"/>
   </g>
   <g id="patch_41">
    <path clip-path="url(#p9825ec5a33)" d="M 366.636213 447.427216 
L 392.895037 447.427216 
L 392.895037 447.427216 
L 366.636213 447.427216 
z
" style="fill:#1f77b4;stroke:#000000;stroke-linejoin:miter;"/>
   </g>
   <g id="patch_42">
    <path clip-path="url(#p9825ec5a33)" d="M 399.459743 447.427216 
L 425.718566 447.427216 
L 425.718566 408.329072 
L 399.459743 408.329072 
z
" style="fill:#1f77b4;stroke:#000000;stroke-linejoin:miter;"/>
   </g>
   <g id="patch_43">
    <path clip-path="url(#p9825ec5a33)" d="M 432.283272 447.427216 
L 458.542096 447.427216 
L 458.542096 392.291027 
L 432.283272 392.291027 
z
" style="fill:#1f77b4;stroke:#000000;stroke-linejoin:miter;"/>
   </g>
   <g id="patch_44">
    <path d="M 281.295037 447.427216 
L 478.236213 447.427216 
" style="fill:none;stroke:#000000;stroke-linecap:square;stroke-linejoin:miter;"/>
   </g>
   <g id="patch_45">
    <path d="M 281.295037 447.427216 
L 281.295037 269.881761 
" style="fill:none;stroke:#000000;stroke-linecap:square;stroke-linejoin:miter;"/>
   </g>
   <g id="matplotlib.axis_9">
    <g id="xtick_21">
     <g id="text_75">
      <!-- A -->
      <g transform="translate(310.698253676 459.025653409)scale(0.1 -0.1)">
       <use xlink:href="#BitstreamVeraSans-Roman-41"/>
      </g>
     </g>
    </g>
    <g id="xtick_22">
     <g id="text_76">
      <!-- B -->
      <g transform="translate(343.511626838 459.025653409)scale(0.1 -0.1)">
       <use xlink:href="#BitstreamVeraSans-Roman-42"/>
      </g>
     </g>
    </g>
    <g id="xtick_23">
     <g id="text_77">
      <!-- C -->
      <g transform="translate(376.27421875 459.025653409)scale(0.1 -0.1)">
       <use xlink:href="#BitstreamVeraSans-Roman-43"/>
      </g>
     </g>
    </g>
    <g id="xtick_24">
     <g id="text_78">
      <!-- D -->
      <g transform="translate(408.739154412 459.025653409)scale(0.1 -0.1)">
       <use xlink:href="#BitstreamVeraSans-Roman-44"/>
      </g>
     </g>
    </g>
    <g id="xtick_25">
     <g id="text_79">
      <!-- E -->
      <g transform="translate(442.253308824 459.025653409)scale(0.1 -0.1)">
       <use xlink:href="#BitstreamVeraSans-Roman-45"/>
      </g>
     </g>
    </g>
    <g id="text_80">
     <!-- Attractors -->
     <g transform="translate(354.87734375 473.703778409)scale(0.1 -0.1)">
      <use xlink:href="#BitstreamVeraSans-Roman-41"/>
      <use x="68.392578125" xlink:href="#BitstreamVeraSans-Roman-74"/>
      <use x="107.6015625" xlink:href="#BitstreamVeraSans-Roman-74"/>
      <use x="146.810546875" xlink:href="#BitstreamVeraSans-Roman-72"/>
      <use x="187.923828125" xlink:href="#BitstreamVeraSans-Roman-61"/>
      <use x="249.203125" xlink:href="#BitstreamVeraSans-Roman-63"/>
      <use x="304.18359375" xlink:href="#BitstreamVeraSans-Roman-74"/>
      <use x="343.392578125" xlink:href="#BitstreamVeraSans-Roman-6f"/>
      <use x="404.57421875" xlink:href="#BitstreamVeraSans-Roman-72"/>
      <use x="445.6875" xlink:href="#BitstreamVeraSans-Roman-73"/>
     </g>
    </g>
   </g>
   <g id="matplotlib.axis_10">
    <g id="ytick_25">
     <g id="line2d_25">
      <g>
       <use style="stroke:#000000;stroke-width:0.5;" x="281.295036765" xlink:href="#m3506ddeb3c" y="447.427215909"/>
      </g>
     </g>
     <g id="text_81">
      <!-- 0 -->
      <g transform="translate(270.932536765 450.186590909)scale(0.1 -0.1)">
       <use xlink:href="#BitstreamVeraSans-Roman-30"/>
      </g>
     </g>
    </g>
    <g id="ytick_26">
     <g id="line2d_26">
      <g>
       <use style="stroke:#000000;stroke-width:0.5;" x="281.295036765" xlink:href="#m3506ddeb3c" y="411.918125"/>
      </g>
     </g>
     <g id="text_82">
      <!-- 20 -->
      <g transform="translate(264.570036765 414.6775)scale(0.1 -0.1)">
       <use xlink:href="#BitstreamVeraSans-Roman-32"/>
       <use x="63.623046875" xlink:href="#BitstreamVeraSans-Roman-30"/>
      </g>
     </g>
    </g>
    <g id="ytick_27">
     <g id="line2d_27">
      <g>
       <use style="stroke:#000000;stroke-width:0.5;" x="281.295036765" xlink:href="#m3506ddeb3c" y="376.409034091"/>
      </g>
     </g>
     <g id="text_83">
      <!-- 40 -->
      <g transform="translate(264.570036765 379.168409091)scale(0.1 -0.1)">
       <use xlink:href="#BitstreamVeraSans-Roman-34"/>
       <use x="63.623046875" xlink:href="#BitstreamVeraSans-Roman-30"/>
      </g>
     </g>
    </g>
    <g id="ytick_28">
     <g id="line2d_28">
      <g>
       <use style="stroke:#000000;stroke-width:0.5;" x="281.295036765" xlink:href="#m3506ddeb3c" y="340.899943182"/>
      </g>
     </g>
     <g id="text_84">
      <!-- 60 -->
      <g transform="translate(264.570036765 343.659318182)scale(0.1 -0.1)">
       <use xlink:href="#BitstreamVeraSans-Roman-36"/>
       <use x="63.623046875" xlink:href="#BitstreamVeraSans-Roman-30"/>
      </g>
     </g>
    </g>
    <g id="ytick_29">
     <g id="line2d_29">
      <g>
       <use style="stroke:#000000;stroke-width:0.5;" x="281.295036765" xlink:href="#m3506ddeb3c" y="305.390852273"/>
      </g>
     </g>
     <g id="text_85">
      <!-- 80 -->
      <g transform="translate(264.570036765 308.150227273)scale(0.1 -0.1)">
       <use xlink:href="#BitstreamVeraSans-Roman-38"/>
       <use x="63.623046875" xlink:href="#BitstreamVeraSans-Roman-30"/>
      </g>
     </g>
    </g>
    <g id="ytick_30">
     <g id="line2d_30">
      <g>
       <use style="stroke:#000000;stroke-width:0.5;" x="281.295036765" xlink:href="#m3506ddeb3c" y="269.881761364"/>
      </g>
     </g>
     <g id="text_86">
      <!-- 100 -->
      <g transform="translate(258.207536765 272.641136364)scale(0.1 -0.1)">
       <use xlink:href="#BitstreamVeraSans-Roman-31"/>
       <use x="63.623046875" xlink:href="#BitstreamVeraSans-Roman-30"/>
       <use x="127.24609375" xlink:href="#BitstreamVeraSans-Roman-30"/>
      </g>
     </g>
    </g>
   </g>
   <g id="text_87">
    <!-- 00 -->
    <g transform="translate(307.756066176 395.652140225)scale(0.1 -0.1)">
     <use xlink:href="#BitstreamVeraSans-Roman-30"/>
     <use x="63.623046875" xlink:href="#BitstreamVeraSans-Roman-30"/>
    </g>
   </g>
   <g id="text_88">
    <!-- 01 -->
    <g transform="translate(340.579595588 409.956338335)scale(0.1 -0.1)">
     <use xlink:href="#BitstreamVeraSans-Roman-30"/>
     <use x="63.623046875" xlink:href="#BitstreamVeraSans-Roman-31"/>
    </g>
   </g>
   <g id="text_89">
    <!-- 10 -->
    <g transform="translate(373.403125 444.459801136)scale(0.1 -0.1)">
     <use xlink:href="#BitstreamVeraSans-Roman-31"/>
     <use x="63.623046875" xlink:href="#BitstreamVeraSans-Roman-30"/>
    </g>
   </g>
   <g id="text_90">
    <!-- 11 -->
    <g transform="translate(406.226654412 405.361657271)scale(0.1 -0.1)">
     <use xlink:href="#BitstreamVeraSans-Roman-31"/>
     <use x="63.623046875" xlink:href="#BitstreamVeraSans-Roman-31"/>
    </g>
   </g>
   <g id="text_91">
    <!-- ?? -->
    <g transform="translate(440.104871324 389.323612394)scale(0.1 -0.1)">
     <use xlink:href="#BitstreamVeraSans-Roman-3f"/>
     <use x="53.076171875" xlink:href="#BitstreamVeraSans-Roman-3f"/>
    </g>
   </g>
  </g>
  <g id="axes_6">
   <g id="patch_46">
    <path d="M 517.624449 447.427216 
L 714.565625 447.427216 
L 714.565625 269.881761 
L 517.624449 269.881761 
z
" style="fill:#ffffff;"/>
   </g>
   <g id="patch_47">
    <path clip-path="url(#p9a145536e5)" d="M 537.318566 447.427216 
L 563.57739 447.427216 
L 563.57739 447.427216 
L 537.318566 447.427216 
z
" style="fill:#1f77b4;stroke:#000000;stroke-linejoin:miter;"/>
   </g>
   <g id="patch_48">
    <path clip-path="url(#p9a145536e5)" d="M 570.142096 447.427216 
L 596.400919 447.427216 
L 596.400919 447.427216 
L 570.142096 447.427216 
z
" style="fill:#1f77b4;stroke:#000000;stroke-linejoin:miter;"/>
   </g>
   <g id="patch_49">
    <path clip-path="url(#p9a145536e5)" d="M 602.965625 447.427216 
L 629.224449 447.427216 
L 629.224449 447.427216 
L 602.965625 447.427216 
z
" style="fill:#1f77b4;stroke:#000000;stroke-linejoin:miter;"/>
   </g>
   <g id="patch_50">
    <path clip-path="url(#p9a145536e5)" d="M 635.789154 447.427216 
L 662.047978 447.427216 
L 662.047978 393.851488 
L 635.789154 393.851488 
z
" style="fill:#1f77b4;stroke:#000000;stroke-linejoin:miter;"/>
   </g>
   <g id="patch_51">
    <path clip-path="url(#p9a145536e5)" d="M 668.612684 447.427216 
L 694.871507 447.427216 
L 694.871507 323.457489 
L 668.612684 323.457489 
z
" style="fill:#1f77b4;stroke:#000000;stroke-linejoin:miter;"/>
   </g>
   <g id="patch_52">
    <path d="M 517.624449 447.427216 
L 714.565625 447.427216 
" style="fill:none;stroke:#000000;stroke-linecap:square;stroke-linejoin:miter;"/>
   </g>
   <g id="patch_53">
    <path d="M 517.624449 447.427216 
L 517.624449 269.881761 
" style="fill:none;stroke:#000000;stroke-linecap:square;stroke-linejoin:miter;"/>
   </g>
   <g id="matplotlib.axis_11">
    <g id="xtick_26">
     <g id="text_92">
      <!-- A -->
      <g transform="translate(547.027665441 459.025653409)scale(0.1 -0.1)">
       <use xlink:href="#BitstreamVeraSans-Roman-41"/>
      </g>
     </g>
    </g>
    <g id="xtick_27">
     <g id="text_93">
      <!-- B -->
      <g transform="translate(579.841038603 459.025653409)scale(0.1 -0.1)">
       <use xlink:href="#BitstreamVeraSans-Roman-42"/>
      </g>
     </g>
    </g>
    <g id="xtick_28">
     <g id="text_94">
      <!-- C -->
      <g transform="translate(612.603630515 459.025653409)scale(0.1 -0.1)">
       <use xlink:href="#BitstreamVeraSans-Roman-43"/>
      </g>
     </g>
    </g>
    <g id="xtick_29">
     <g id="text_95">
      <!-- D -->
      <g transform="translate(645.068566176 459.025653409)scale(0.1 -0.1)">
       <use xlink:href="#BitstreamVeraSans-Roman-44"/>
      </g>
     </g>
    </g>
    <g id="xtick_30">
     <g id="text_96">
      <!-- E -->
      <g transform="translate(678.582720588 459.025653409)scale(0.1 -0.1)">
       <use xlink:href="#BitstreamVeraSans-Roman-45"/>
      </g>
     </g>
    </g>
    <g id="text_97">
     <!-- Attractors -->
     <g transform="translate(591.206755515 473.703778409)scale(0.1 -0.1)">
      <use xlink:href="#BitstreamVeraSans-Roman-41"/>
      <use x="68.392578125" xlink:href="#BitstreamVeraSans-Roman-74"/>
      <use x="107.6015625" xlink:href="#BitstreamVeraSans-Roman-74"/>
      <use x="146.810546875" xlink:href="#BitstreamVeraSans-Roman-72"/>
      <use x="187.923828125" xlink:href="#BitstreamVeraSans-Roman-61"/>
      <use x="249.203125" xlink:href="#BitstreamVeraSans-Roman-63"/>
      <use x="304.18359375" xlink:href="#BitstreamVeraSans-Roman-74"/>
      <use x="343.392578125" xlink:href="#BitstreamVeraSans-Roman-6f"/>
      <use x="404.57421875" xlink:href="#BitstreamVeraSans-Roman-72"/>
      <use x="445.6875" xlink:href="#BitstreamVeraSans-Roman-73"/>
     </g>
    </g>
   </g>
   <g id="matplotlib.axis_12">
    <g id="ytick_31">
     <g id="line2d_31">
      <g>
       <use style="stroke:#000000;stroke-width:0.5;" x="517.624448529" xlink:href="#m3506ddeb3c" y="447.427215909"/>
      </g>
     </g>
     <g id="text_98">
      <!-- 0 -->
      <g transform="translate(507.261948529 450.186590909)scale(0.1 -0.1)">
       <use xlink:href="#BitstreamVeraSans-Roman-30"/>
      </g>
     </g>
    </g>
    <g id="ytick_32">
     <g id="line2d_32">
      <g>
       <use style="stroke:#000000;stroke-width:0.5;" x="517.624448529" xlink:href="#m3506ddeb3c" y="411.918125"/>
      </g>
     </g>
     <g id="text_99">
      <!-- 20 -->
      <g transform="translate(500.899448529 414.6775)scale(0.1 -0.1)">
       <use xlink:href="#BitstreamVeraSans-Roman-32"/>
       <use x="63.623046875" xlink:href="#BitstreamVeraSans-Roman-30"/>
      </g>
     </g>
    </g>
    <g id="ytick_33">
     <g id="line2d_33">
      <g>
       <use style="stroke:#000000;stroke-width:0.5;" x="517.624448529" xlink:href="#m3506ddeb3c" y="376.409034091"/>
      </g>
     </g>
     <g id="text_100">
      <!-- 40 -->
      <g transform="translate(500.899448529 379.168409091)scale(0.1 -0.1)">
       <use xlink:href="#BitstreamVeraSans-Roman-34"/>
       <use x="63.623046875" xlink:href="#BitstreamVeraSans-Roman-30"/>
      </g>
     </g>
    </g>
    <g id="ytick_34">
     <g id="line2d_34">
      <g>
       <use style="stroke:#000000;stroke-width:0.5;" x="517.624448529" xlink:href="#m3506ddeb3c" y="340.899943182"/>
      </g>
     </g>
     <g id="text_101">
      <!-- 60 -->
      <g transform="translate(500.899448529 343.659318182)scale(0.1 -0.1)">
       <use xlink:href="#BitstreamVeraSans-Roman-36"/>
       <use x="63.623046875" xlink:href="#BitstreamVeraSans-Roman-30"/>
      </g>
     </g>
    </g>
    <g id="ytick_35">
     <g id="line2d_35">
      <g>
       <use style="stroke:#000000;stroke-width:0.5;" x="517.624448529" xlink:href="#m3506ddeb3c" y="305.390852273"/>
      </g>
     </g>
     <g id="text_102">
      <!-- 80 -->
      <g transform="translate(500.899448529 308.150227273)scale(0.1 -0.1)">
       <use xlink:href="#BitstreamVeraSans-Roman-38"/>
       <use x="63.623046875" xlink:href="#BitstreamVeraSans-Roman-30"/>
      </g>
     </g>
    </g>
    <g id="ytick_36">
     <g id="line2d_36">
      <g>
       <use style="stroke:#000000;stroke-width:0.5;" x="517.624448529" xlink:href="#m3506ddeb3c" y="269.881761364"/>
      </g>
     </g>
     <g id="text_103">
      <!-- 100 -->
      <g transform="translate(494.536948529 272.641136364)scale(0.1 -0.1)">
       <use xlink:href="#BitstreamVeraSans-Roman-31"/>
       <use x="63.623046875" xlink:href="#BitstreamVeraSans-Roman-30"/>
       <use x="127.24609375" xlink:href="#BitstreamVeraSans-Roman-30"/>
      </g>
     </g>
    </g>
   </g>
   <g id="text_104">
    <!-- 00 -->
    <g transform="translate(544.085477941 444.459801136)scale(0.1 -0.1)">
     <use xlink:href="#BitstreamVeraSans-Roman-30"/>
     <use x="63.623046875" xlink:href="#BitstreamVeraSans-Roman-30"/>
    </g>
   </g>
   <g id="text_105">
    <!-- 01 -->
    <g transform="translate(576.909007353 444.459801136)scale(0.1 -0.1)">
     <use xlink:href="#BitstreamVeraSans-Roman-30"/>
     <use x="63.623046875" xlink:href="#BitstreamVeraSans-Roman-31"/>
    </g>
   </g>
   <g id="text_106">
    <!-- 10 -->
    <g transform="translate(609.732536765 444.459801136)scale(0.1 -0.1)">
     <use xlink:href="#BitstreamVeraSans-Roman-31"/>
     <use x="63.623046875" xlink:href="#BitstreamVeraSans-Roman-30"/>
    </g>
   </g>
   <g id="text_107">
    <!-- 11 -->
    <g transform="translate(642.556066176 390.884073597)scale(0.1 -0.1)">
     <use xlink:href="#BitstreamVeraSans-Roman-31"/>
     <use x="63.623046875" xlink:href="#BitstreamVeraSans-Roman-31"/>
    </g>
   </g>
   <g id="text_108">
    <!-- ?? -->
    <g transform="translate(676.434283088 320.49007413)scale(0.1 -0.1)">
     <use xlink:href="#BitstreamVeraSans-Roman-3f"/>
     <use x="53.076171875" xlink:href="#BitstreamVeraSans-Roman-3f"/>
    </g>
   </g>
  </g>
 </g>
 <defs>
  <clipPath id="p9825ec5a33">
   <rect height="177.545454545" width="196.941176471" x="281.295036765" y="269.881761364"/>
  </clipPath>
  <clipPath id="p315c087632">
   <rect height="177.545454545" width="196.941176471" x="44.965625" y="56.8272159091"/>
  </clipPath>
  <clipPath id="p05132701bd">
   <rect height="177.545454545" width="196.941176471" x="281.295036765" y="56.8272159091"/>
  </clipPath>
  <clipPath id="peb24da861c">
   <rect height="177.545454545" width="196.941176471" x="44.965625" y="269.881761364"/>
  </clipPath>
  <clipPath id="p9a145536e5">
   <rect height="177.545454545" width="196.941176471" x="517.624448529" y="269.881761364"/>
  </clipPath>
  <clipPath id="pc245f3410f">
   <rect height="177.545454545" width="196.941176471" x="517.624448529" y="56.8272159091"/>
  </clipPath>
 </defs>
</svg>
